<svg id="mermaid-svg" width="100%" xmlns="http://www.w3.org/2000/svg" class="flowchart" style="max-width: 1156.5625px;" viewBox="0 0 1156.5625 287" role="graphics-document document" aria-roledescription="flowchart-v2" xmlns:xlink="http://www.w3.org/1999/xlink"><style xmlns="http://www.w3.org/1999/xhtml">@import url("https://cdnjs.cloudflare.com/ajax/libs/font-awesome/6.7.2/css/all.min.css");</style><style>#mermaid-svg{font-family:"trebuchet ms",verdana,arial,sans-serif;font-size:16px;fill:#333;}@keyframes edge-animation-frame{from{stroke-dashoffset:0;}}@keyframes dash{to{stroke-dashoffset:0;}}#mermaid-svg .edge-animation-slow{stroke-dasharray:9,5!important;stroke-dashoffset:900;animation:dash 50s linear infinite;stroke-linecap:round;}#mermaid-svg .edge-animation-fast{stroke-dasharray:9,5!important;stroke-dashoffset:900;animation:dash 20s linear infinite;stroke-linecap:round;}#mermaid-svg .error-icon{fill:#552222;}#mermaid-svg .error-text{fill:#552222;stroke:#552222;}#mermaid-svg .edge-thickness-normal{stroke-width:1px;}#mermaid-svg .edge-thickness-thick{stroke-width:3.5px;}#mermaid-svg .edge-pattern-solid{stroke-dasharray:0;}#mermaid-svg .edge-thickness-invisible{stroke-width:0;fill:none;}#mermaid-svg .edge-pattern-dashed{stroke-dasharray:3;}#mermaid-svg .edge-pattern-dotted{stroke-dasharray:2;}#mermaid-svg .marker{fill:#333333;stroke:#333333;}#mermaid-svg .marker.cross{stroke:#333333;}#mermaid-svg svg{font-family:"trebuchet ms",verdana,arial,sans-serif;font-size:16px;}#mermaid-svg p{margin:0;}#mermaid-svg .label{font-family:"trebuchet ms",verdana,arial,sans-serif;color:#333;}#mermaid-svg .cluster-label text{fill:#333;}#mermaid-svg .cluster-label span{color:#333;}#mermaid-svg .cluster-label span p{background-color:transparent;}#mermaid-svg .label text,#mermaid-svg span{fill:#333;color:#333;}#mermaid-svg .node rect,#mermaid-svg .node circle,#mermaid-svg .node ellipse,#mermaid-svg .node polygon,#mermaid-svg .node path{fill:#ECECFF;stroke:#9370DB;stroke-width:1px;}#mermaid-svg .rough-node .label text,#mermaid-svg .node .label text,#mermaid-svg .image-shape .label,#mermaid-svg .icon-shape .label{text-anchor:middle;}#mermaid-svg .node .katex path{fill:#000;stroke:#000;stroke-width:1px;}#mermaid-svg .rough-node .label,#mermaid-svg .node .label,#mermaid-svg .image-shape .label,#mermaid-svg .icon-shape .label{text-align:center;}#mermaid-svg .node.clickable{cursor:pointer;}#mermaid-svg .root .anchor path{fill:#333333!important;stroke-width:0;stroke:#333333;}#mermaid-svg .arrowheadPath{fill:#333333;}#mermaid-svg .edgePath .path{stroke:#333333;stroke-width:2.0px;}#mermaid-svg .flowchart-link{stroke:#333333;fill:none;}#mermaid-svg .edgeLabel{background-color:rgba(232,232,232, 0.8);text-align:center;}#mermaid-svg .edgeLabel p{background-color:rgba(232,232,232, 0.8);}#mermaid-svg .edgeLabel rect{opacity:0.5;background-color:rgba(232,232,232, 0.8);fill:rgba(232,232,232, 0.8);}#mermaid-svg .labelBkg{background-color:rgba(232, 232, 232, 0.5);}#mermaid-svg .cluster rect{fill:#ffffde;stroke:#aaaa33;stroke-width:1px;}#mermaid-svg .cluster text{fill:#333;}#mermaid-svg .cluster span{color:#333;}#mermaid-svg div.mermaidTooltip{position:absolute;text-align:center;max-width:200px;padding:2px;font-family:"trebuchet ms",verdana,arial,sans-serif;font-size:12px;background:hsl(80, 100%, 96.2745098039%);border:1px solid #aaaa33;border-radius:2px;pointer-events:none;z-index:100;}#mermaid-svg .flowchartTitleText{text-anchor:middle;font-size:18px;fill:#333;}#mermaid-svg rect.text{fill:none;stroke-width:0;}#mermaid-svg .icon-shape,#mermaid-svg .image-shape{background-color:rgba(232,232,232, 0.8);text-align:center;}#mermaid-svg .icon-shape p,#mermaid-svg .image-shape p{background-color:rgba(232,232,232, 0.8);padding:2px;}#mermaid-svg .icon-shape rect,#mermaid-svg .image-shape rect{opacity:0.5;background-color:rgba(232,232,232, 0.8);fill:rgba(232,232,232, 0.8);}#mermaid-svg .label-icon{display:inline-block;height:1em;overflow:visible;vertical-align:-0.125em;}#mermaid-svg .node .label-icon path{fill:currentColor;stroke:revert;stroke-width:revert;}#mermaid-svg :root{--mermaid-font-family:"trebuchet ms",verdana,arial,sans-serif;}</style><g><marker id="mermaid-svg_flowchart-v2-pointEnd" class="marker flowchart-v2" viewBox="0 0 10 10" refX="5" refY="5" markerUnits="userSpaceOnUse" markerWidth="8" markerHeight="8" orient="auto"><path d="M 0 0 L 10 5 L 0 10 z" class="arrowMarkerPath" style="stroke-width: 1; stroke-dasharray: 1, 0;"/></marker><marker id="mermaid-svg_flowchart-v2-pointStart" class="marker flowchart-v2" viewBox="0 0 10 10" refX="4.5" refY="5" markerUnits="userSpaceOnUse" markerWidth="8" markerHeight="8" orient="auto"><path d="M 0 5 L 10 10 L 10 0 z" class="arrowMarkerPath" style="stroke-width: 1; stroke-dasharray: 1, 0;"/></marker><marker id="mermaid-svg_flowchart-v2-circleEnd" class="marker flowchart-v2" viewBox="0 0 10 10" refX="11" refY="5" markerUnits="userSpaceOnUse" markerWidth="11" markerHeight="11" orient="auto"><circle cx="5" cy="5" r="5" class="arrowMarkerPath" style="stroke-width: 1; stroke-dasharray: 1, 0;"/></marker><marker id="mermaid-svg_flowchart-v2-circleStart" class="marker flowchart-v2" viewBox="0 0 10 10" refX="-1" refY="5" markerUnits="userSpaceOnUse" markerWidth="11" markerHeight="11" orient="auto"><circle cx="5" cy="5" r="5" class="arrowMarkerPath" style="stroke-width: 1; stroke-dasharray: 1, 0;"/></marker><marker id="mermaid-svg_flowchart-v2-crossEnd" class="marker cross flowchart-v2" viewBox="0 0 11 11" refX="12" refY="5.2" markerUnits="userSpaceOnUse" markerWidth="11" markerHeight="11" orient="auto"><path d="M 1,1 l 9,9 M 10,1 l -9,9" class="arrowMarkerPath" style="stroke-width: 2; stroke-dasharray: 1, 0;"/></marker><marker id="mermaid-svg_flowchart-v2-crossStart" class="marker cross flowchart-v2" viewBox="0 0 11 11" refX="-1" refY="5.2" markerUnits="userSpaceOnUse" markerWidth="11" markerHeight="11" orient="auto"><path d="M 1,1 l 9,9 M 10,1 l -9,9" class="arrowMarkerPath" style="stroke-width: 2; stroke-dasharray: 1, 0;"/></marker><g class="root"><g class="clusters"/><g class="edgePaths"><path d="M533.407,34.861L491.021,41.051C448.635,47.24,363.862,59.62,321.476,69.31C279.09,79,279.09,86,279.09,89.5L279.09,93" id="L_A_B_0" class=" edge-thickness-normal edge-pattern-solid edge-thickness-normal edge-pattern-solid flowchart-link" style=";" data-edge="true" data-et="edge" data-id="L_A_B_0" data-points="W3sieCI6NTMzLjQwNzE2ODA5MTI3LCJ5IjozNC44NjA3MjIyMTI3MzE1Nn0seyJ4IjoyNzkuMDg5ODQzNzUsInkiOjcyfSx7IngiOjI3OS4wODk4NDM3NSwieSI6OTd9XQ==" marker-end="url(#mermaid-svg_flowchart-v2-pointEnd)"/><path d="M625.963,34.795L668.693,40.996C711.422,47.197,796.881,59.598,839.61,69.299C882.34,79,882.34,86,882.34,89.5L882.34,93" id="L_A_C_0" class=" edge-thickness-normal edge-pattern-solid edge-thickness-normal edge-pattern-solid flowchart-link" style=";" data-edge="true" data-et="edge" data-id="L_A_C_0" data-points="W3sieCI6NjI1Ljk2MzI2NjQ2NTkwNDEsInkiOjM0Ljc5NDgwMzk3ODU1NDMzfSx7IngiOjg4Mi4zMzk4NDM3NSwieSI6NzJ9LHsieCI6ODgyLjMzOTg0Mzc1LCJ5Ijo5N31d" marker-end="url(#mermaid-svg_flowchart-v2-pointEnd)"/><path d="M202.395,150.523L190.117,154.77C177.839,159.016,153.283,167.508,141.005,177.254C128.727,187,128.727,198,128.727,203.5L128.727,209" id="L_B_D_0" class=" edge-thickness-normal edge-pattern-solid edge-thickness-normal edge-pattern-solid flowchart-link" style=";" data-edge="true" data-et="edge" data-id="L_B_D_0" data-points="W3sieCI6MjAyLjM5NDUzMTI1LCJ5IjoxNTAuNTIzNDcxODAwMDY3NTR9LHsieCI6MTI4LjcyNjU2MjUsInkiOjE3Nn0seyJ4IjoxMjguNzI2NTYyNSwieSI6MjEzfV0=" marker-end="url(#mermaid-svg_flowchart-v2-pointEnd)"/><path d="M355.785,150.523L368.063,154.77C380.341,159.016,404.897,167.508,417.175,175.254C429.453,183,429.453,190,429.453,193.5L429.453,197" id="L_B_E_0" class=" edge-thickness-normal edge-pattern-solid edge-thickness-normal edge-pattern-solid flowchart-link" style=";" data-edge="true" data-et="edge" data-id="L_B_E_0" data-points="W3sieCI6MzU1Ljc4NTE1NjI1LCJ5IjoxNTAuNTIzNDcxODAwMDY3NTR9LHsieCI6NDI5LjQ1MzEyNSwieSI6MTc2fSx7IngiOjQyOS40NTMxMjUsInkiOjIwMX1d" marker-end="url(#mermaid-svg_flowchart-v2-pointEnd)"/><path d="M805.869,151L794.068,155.167C782.267,159.333,758.665,167.667,746.864,177.333C735.063,187,735.063,198,735.063,203.5L735.063,209" id="L_C_F_0" class=" edge-thickness-normal edge-pattern-solid edge-thickness-normal edge-pattern-solid flowchart-link" style=";" data-edge="true" data-et="edge" data-id="L_C_F_0" data-points="W3sieCI6ODA1Ljg2ODkxNTI2NDQyMzEsInkiOjE1MX0seyJ4Ijo3MzUuMDYyNSwieSI6MTc2fSx7IngiOjczNS4wNjI1LCJ5IjoyMTN9XQ==" marker-end="url(#mermaid-svg_flowchart-v2-pointEnd)"/><path d="M958.811,151L970.612,155.167C982.413,159.333,1006.015,167.667,1017.816,177.333C1029.617,187,1029.617,198,1029.617,203.5L1029.617,209" id="L_C_G_0" class=" edge-thickness-normal edge-pattern-solid edge-thickness-normal edge-pattern-solid flowchart-link" style=";" data-edge="true" data-et="edge" data-id="L_C_G_0" data-points="W3sieCI6OTU4LjgxMDc3MjIzNTU3NjksInkiOjE1MX0seyJ4IjoxMDI5LjYxNzE4NzUsInkiOjE3Nn0seyJ4IjoxMDI5LjYxNzE4NzUsInkiOjIxM31d" marker-end="url(#mermaid-svg_flowchart-v2-pointEnd)"/></g><g class="edgeLabels"><g class="edgeLabel"><g class="label" data-id="L_A_B_0" transform="translate(0, 0)"><foreignObject width="0" height="0"><div xmlns="http://www.w3.org/1999/xhtml" class="labelBkg" style="display: table-cell; white-space: nowrap; line-height: 1.5; max-width: 200px; text-align: center;"><span class="edgeLabel "></span></div></foreignObject></g></g><g class="edgeLabel"><g class="label" data-id="L_A_C_0" transform="translate(0, 0)"><foreignObject width="0" height="0"><div xmlns="http://www.w3.org/1999/xhtml" class="labelBkg" style="display: table-cell; white-space: nowrap; line-height: 1.5; max-width: 200px; text-align: center;"><span class="edgeLabel "></span></div></foreignObject></g></g><g class="edgeLabel"><g class="label" data-id="L_B_D_0" transform="translate(0, 0)"><foreignObject width="0" height="0"><div xmlns="http://www.w3.org/1999/xhtml" class="labelBkg" style="display: table-cell; white-space: nowrap; line-height: 1.5; max-width: 200px; text-align: center;"><span class="edgeLabel "></span></div></foreignObject></g></g><g class="edgeLabel"><g class="label" data-id="L_B_E_0" transform="translate(0, 0)"><foreignObject width="0" height="0"><div xmlns="http://www.w3.org/1999/xhtml" class="labelBkg" style="display: table-cell; white-space: nowrap; line-height: 1.5; max-width: 200px; text-align: center;"><span class="edgeLabel "></span></div></foreignObject></g></g><g class="edgeLabel"><g class="label" data-id="L_C_F_0" transform="translate(0, 0)"><foreignObject width="0" height="0"><div xmlns="http://www.w3.org/1999/xhtml" class="labelBkg" style="display: table-cell; white-space: nowrap; line-height: 1.5; max-width: 200px; text-align: center;"><span class="edgeLabel "></span></div></foreignObject></g></g><g class="edgeLabel"><g class="label" data-id="L_C_G_0" transform="translate(0, 0)"><foreignObject width="0" height="0"><div xmlns="http://www.w3.org/1999/xhtml" class="labelBkg" style="display: table-cell; white-space: nowrap; line-height: 1.5; max-width: 200px; text-align: center;"><span class="edgeLabel "></span></div></foreignObject></g></g></g><g class="nodes"><g class="node default  " id="flowchart-A-0" transform="translate(579.171875, 27.5)"><g class="basic label-container outer-path"><path d="M-28.015625 -19.5 C-5.717737145316555 -19.5, 16.58015070936689 -19.5, 28.015625 -19.5 C28.015625 -19.5, 28.015625 -19.5, 28.015625 -19.5 C28.43302434084004 -19.48661481555779, 28.850423681680073 -19.473229631115583, 29.2649942896239 -19.45993515863156 C29.64674987160481 -19.42310765676612, 30.028505453585723 -19.386280154900682, 30.509229652847864 -19.3399052695533 C30.977672798892037 -19.264171014531733, 31.446115944936206 -19.188436759510164, 31.74321825967676 -19.140403561325776 C32.015302235176335 -19.07830216943187, 32.28738621067591 -19.01620077753796, 32.96188938623539 -18.862249829261074 C33.25743907866706 -18.77453223191935, 33.55298877109874 -18.68681463457762, 34.160235251460605 -18.50658706670804 C34.59397061601557 -18.346968443146057, 35.02770598057053 -18.18734981958407, 35.3333315951478 -18.074876768247425 C35.745913193722785 -17.892239133356554, 36.158494792297766 -17.709601498465684, 36.47635791279238 -17.568892924097174 C36.70605963321209 -17.449057683685183, 36.935761353631804 -17.329222443273196, 37.58461726407678 -16.990714730406097 C38.002698331859385 -16.737271530199216, 38.42077939964198 -16.48382832999234, 38.6535555736057 -16.342718045390892 C38.9910175565603 -16.107319174575558, 39.3284795395149 -15.871920303760225, 39.67878034457871 -15.627565626425154 C40.022594127335076 -15.353383283945957, 40.36640791009144 -15.07920094146676, 40.656078708501866 -14.848196188198123 C40.927422048060635 -14.601769346562198, 41.19876538761941 -14.355342504926274, 41.58143473676799 -14.007812326905688 C41.87940869971318 -13.700129746047446, 42.177382662658374 -13.392447165189205, 42.45104594296865 -13.10986736009568 C42.62107490888941 -12.910141661802909, 42.79110387481018 -12.710415963510137, 43.26133890812658 -12.158051136245305 C43.521278259427945 -11.809756086463544, 43.78121761072931 -11.461461036681785, 44.008983964640635 -11.156274872382312 C44.16365499435456 -10.918658635754795, 44.31832602406849 -10.681042399127278, 44.69090887860425 -10.108655082055241 C44.91624222796695 -9.708552902785904, 45.14157557732965 -9.308450723516565, 45.304311474273504 -9.019496659696287 C45.45428878064132 -8.708065574023225, 45.604266087009144 -8.396634488350164, 45.84667114880834 -7.893275190886684 C46.019375177834476 -7.466692900186885, 46.192079206860605 -7.040110609487086, 46.315759229970325 -6.734618561215508 C46.43685122314863 -6.369908771151483, 46.557943216326926 -6.005198981087458, 46.70964813421488 -5.548287939305138 C46.83505383643959 -5.070061645547156, 46.96045953866431 -4.591835351789174, 47.02671928754556 -4.339158212148133 C47.10337922195127 -3.945525651057687, 47.180039156356976 -3.5518930899672405, 47.265669776581774 -3.1121979531509023 C47.31411724938899 -2.7364489210937464, 47.36256472219621 -2.3606998890365904, 47.42551770250937 -1.872449005199798 C47.445259086587846 -1.5649610132191074, 47.46500047066632 -1.2574730212384169, 47.50560621591342 -0.6250057626472757 C47.50560621591342 -0.173418284488287, 47.50560621591342 0.2781691936707017, 47.50560621591342 0.625005762647271 C47.47749300667507 1.0628916891086553, 47.44937979743671 1.5007776155700396, 47.42551770250937 1.8724490051997846 C47.36873391442032 2.3128528523911775, 47.31195012633127 2.753256699582571, 47.265669776581774 3.1121979531508885 C47.18123875536457 3.545733402598587, 47.09680773414737 3.979268852046286, 47.02671928754556 4.339158212148129 C46.90192464641847 4.815054265105327, 46.77713000529138 5.290950318062526, 46.70964813421489 5.548287939305125 C46.60544817691763 5.862121608675841, 46.501248219620386 6.175955278046557, 46.315759229970325 6.734618561215495 C46.15384969172904 7.134538250979437, 45.991940153487754 7.53445794074338, 45.84667114880834 7.893275190886679 C45.73749708895372 8.119977462125483, 45.628323029099086 8.346679733364288, 45.304311474273504 9.019496659696284 C45.137339421143054 9.315972447783192, 44.970367368012596 9.612448235870103, 44.69090887860425 10.108655082055236 C44.49154347735371 10.414933875482198, 44.29217807610318 10.721212668909159, 44.00898396464064 11.156274872382301 C43.78736511267991 11.453223944116928, 43.56574626071917 11.750173015851553, 43.26133890812658 12.158051136245302 C43.06171231093554 12.392543896381072, 42.86208571374449 12.627036656516845, 42.45104594296866 13.10986736009567 C42.269717926829635 13.297103424066206, 42.08838991069061 13.484339488036744, 41.58143473676799 14.007812326905684 C41.35207604066749 14.216109826205603, 41.12271734456699 14.424407325505522, 40.65607870850189 14.848196188198111 C40.324332233701185 15.112755173707217, 39.99258575890048 15.377314159216324, 39.67878034457871 15.627565626425152 C39.38722388052439 15.830942794473541, 39.09566741647006 16.03431996252193, 38.65355557360571 16.34271804539089 C38.2269375007708 16.601336428229487, 37.80031942793589 16.859954811068086, 37.58461726407678 16.990714730406093 C37.29962448925261 17.13939527848528, 37.01463171442843 17.28807582656447, 36.47635791279239 17.56889292409717 C36.021952217199264 17.770044846070213, 35.56754652160615 17.971196768043253, 35.333331595147804 18.07487676824742 C35.01568733301915 18.19177279298214, 34.69804307089049 18.308668817716853, 34.16023525146062 18.506587066708033 C33.76014104615346 18.62533292670586, 33.3600468408463 18.744078786703685, 32.96188938623541 18.86224982926107 C32.71401256286145 18.918826096648736, 32.46613573948749 18.975402364036402, 31.743218259676766 19.140403561325773 C31.408823878815472 19.194465851556274, 31.074429497954178 19.248528141786775, 30.50922965284788 19.3399052695533 C30.24506286853876 19.36538912152856, 29.98089608422964 19.390872973503818, 29.2649942896239 19.45993515863156 C28.837058195089547 19.4736582362562, 28.40912210055519 19.48738131388084, 28.015625000000004 19.5 C28.015625000000004 19.5, 28.015625000000004 19.5, 28.015625 19.5 C14.099131146285625 19.5, 0.1826372925712505 19.5, -28.015624999999996 19.5 C-28.418581175785825 19.487077979749163, -28.821537351571653 19.47415595949833, -29.264994289623893 19.45993515863156 C-29.75102844845852 19.41304802787038, -30.237062607293147 19.3661608971092, -30.50922965284787 19.3399052695533 C-30.878403692226083 19.280220073854064, -31.247577731604295 19.22053487815483, -31.74321825967676 19.140403561325773 C-32.018814823781284 19.077500444004567, -32.294411387885816 19.01459732668336, -32.961889386235384 18.862249829261074 C-33.35472023820824 18.74565969440675, -33.7475510901811 18.62906955955243, -34.16023525146059 18.506587066708043 C-34.49465218902511 18.38351854236802, -34.82906912658962 18.260450018027992, -35.3333315951478 18.074876768247425 C-35.60603555745681 17.954158813608846, -35.87873951976582 17.833440858970267, -36.47635791279238 17.568892924097174 C-36.71415003137267 17.44483692814696, -36.95194214995296 17.320780932196744, -37.58461726407678 16.990714730406097 C-37.8568333902992 16.825695714970543, -38.129049516521626 16.660676699534985, -38.653555573605686 16.3427180453909 C-38.861502931736474 16.197662970254914, -39.069450289867255 16.052607895118925, -39.67878034457871 15.627565626425156 C-39.941511248593834 15.418044722036079, -40.20424215260895 15.208523817647004, -40.656078708501866 14.848196188198125 C-40.913165469262836 14.614716794217959, -41.170252230023806 14.38123740023779, -41.581434736767974 14.007812326905697 C-41.87008911094937 13.709752986598547, -42.15874348513076 13.411693646291397, -42.451045942968655 13.109867360095677 C-42.69548150365404 12.822739441737204, -42.93991706433942 12.53561152337873, -43.261338908126575 12.158051136245307 C-43.4112195099352 11.957224784225474, -43.561100111743826 11.75639843220564, -44.008983964640635 11.156274872382316 C-44.27415902558489 10.748894769297811, -44.539334086529145 10.341514666213307, -44.69090887860425 10.108655082055249 C-44.922946713120496 9.696648410493047, -45.154984547636744 9.284641738930846, -45.304311474273504 9.019496659696289 C-45.444378855337355 8.728643745955344, -45.58444623640121 8.4377908322144, -45.84667114880834 7.893275190886686 C-46.0092280812318 7.491756424976268, -46.17178501365525 7.090237659065849, -46.315759229970325 6.73461856121551 C-46.40581636570026 6.463380817052935, -46.4958735014302 6.192143072890362, -46.70964813421488 5.5482879393051325 C-46.784153775407795 5.264165638487389, -46.858659416600716 4.980043337669646, -47.02671928754556 4.339158212148136 C-47.10408111669299 3.941921569904484, -47.18144294584041 3.5446849276608323, -47.265669776581774 3.112197953150904 C-47.32912574723797 2.620045975540222, -47.39258171789416 2.1278939979295406, -47.42551770250937 1.872449005199809 C-47.45167391451385 1.4650448903157, -47.47783012651833 1.0576407754315913, -47.50560621591342 0.6250057626472781 C-47.50560621591342 0.14847394683690157, -47.50560621591342 -0.328057868973475, -47.50560621591342 -0.6250057626472687 C-47.48826701499012 -0.8950778129786283, -47.47092781406683 -1.165149863309988, -47.42551770250937 -1.8724490051997822 C-47.36314093710779 -2.3562308799688614, -47.30076417170621 -2.8400127547379403, -47.265669776581774 -3.112197953150895 C-47.19173169634611 -3.4918543683422403, -47.11779361611045 -3.8715107835335854, -47.02671928754556 -4.339158212148126 C-46.9097151775694 -4.785345593389271, -46.79271106759324 -5.231532974630415, -46.70964813421489 -5.548287939305123 C-46.61840880436309 -5.823086263805693, -46.52716947451129 -6.097884588306263, -46.31575922997033 -6.734618561215485 C-46.19289330444248 -7.038099772720353, -46.070027378914624 -7.341580984225222, -45.84667114880834 -7.893275190886676 C-45.67286565755671 -8.254186012312454, -45.49906016630508 -8.615096833738233, -45.304311474273504 -9.019496659696282 C-45.06562758174694 -9.44330408024216, -44.826943689220364 -9.86711150078804, -44.69090887860425 -10.108655082055243 C-44.4516850165157 -10.476167174824761, -44.212461154427146 -10.843679267594277, -44.00898396464064 -11.156274872382308 C-43.74340193925214 -11.512130591382654, -43.477819913863634 -11.867986310383, -43.26133890812659 -12.158051136245302 C-43.04378077456023 -12.413607299340834, -42.82622264099388 -12.669163462436366, -42.45104594296866 -13.10986736009567 C-42.15250756190931 -13.418132748996367, -41.85396918084996 -13.726398137897062, -41.581434736767996 -14.007812326905677 C-41.22720722360751 -14.329512382011625, -40.87297971044701 -14.651212437117575, -40.65607870850189 -14.848196188198107 C-40.412830875404204 -15.042179861996818, -40.16958304230652 -15.23616353579553, -39.67878034457872 -15.627565626425149 C-39.43510058018223 -15.797546081341155, -39.19142081578574 -15.96752653625716, -38.653555573605715 -16.342718045390885 C-38.39738023742983 -16.498013039634085, -38.14120490125394 -16.653308033877284, -37.58461726407679 -16.99071473040609 C-37.230409258628086 -17.175504819967625, -36.876201253179374 -17.36029490952916, -36.47635791279239 -17.56889292409717 C-36.05906693020376 -17.753615263591968, -35.64177594761513 -17.93833760308676, -35.333331595147804 -18.07487676824742 C-34.91499096875445 -18.228829985858532, -34.4966503423611 -18.382783203469646, -34.16023525146062 -18.506587066708033 C-33.789522862173634 -18.61661255793937, -33.41881047288665 -18.726638049170706, -32.96188938623541 -18.862249829261067 C-32.52892919604641 -18.961070167342427, -32.095969005857405 -19.059890505423784, -31.743218259676766 -19.140403561325773 C-31.295303855814982 -19.212818888514064, -30.847389451953195 -19.28523421570236, -30.509229652847882 -19.3399052695533 C-30.091933302419392 -19.380161346606847, -29.6746369519909 -19.420417423660396, -29.264994289623903 -19.45993515863156 C-28.90883605353993 -19.47135646004282, -28.55267781745595 -19.48277776145408, -28.015625000000007 -19.5 C-28.015625000000004 -19.5, -28.015625 -19.5, -28.015625 -19.5" stroke="none" stroke-width="0" fill="#ECECFF" style=""/><path d="M-28.015625 -19.5 C-15.530820412421413 -19.5, -3.0460158248428257 -19.5, 28.015625 -19.5 M-28.015625 -19.5 C-13.819993302690044 -19.5, 0.3756383946199122 -19.5, 28.015625 -19.5 M28.015625 -19.5 C28.015625 -19.5, 28.015625 -19.5, 28.015625 -19.5 M28.015625 -19.5 C28.015625 -19.5, 28.015625 -19.5, 28.015625 -19.5 M28.015625 -19.5 C28.396444766178575 -19.48778785131936, 28.77726453235715 -19.47557570263872, 29.2649942896239 -19.45993515863156 M28.015625 -19.5 C28.451562428273622 -19.486020335175994, 28.887499856547247 -19.472040670351987, 29.2649942896239 -19.45993515863156 M29.2649942896239 -19.45993515863156 C29.547606982262508 -19.432671852064203, 29.830219674901116 -19.405408545496847, 30.509229652847864 -19.3399052695533 M29.2649942896239 -19.45993515863156 C29.601394062818024 -19.42748307709144, 29.937793836012144 -19.395030995551323, 30.509229652847864 -19.3399052695533 M30.509229652847864 -19.3399052695533 C30.979822447217977 -19.263823476061166, 31.450415241588093 -19.187741682569033, 31.74321825967676 -19.140403561325776 M30.509229652847864 -19.3399052695533 C30.837209141973407 -19.286880089270408, 31.16518863109895 -19.233854908987517, 31.74321825967676 -19.140403561325776 M31.74321825967676 -19.140403561325776 C32.14998240241898 -19.047562300128963, 32.55674654516119 -18.954721038932146, 32.96188938623539 -18.862249829261074 M31.74321825967676 -19.140403561325776 C32.08206804071979 -19.063063310004175, 32.420917821762814 -18.98572305868257, 32.96188938623539 -18.862249829261074 M32.96188938623539 -18.862249829261074 C33.41925370437187 -18.726506500392464, 33.876618022508346 -18.590763171523854, 34.160235251460605 -18.50658706670804 M32.96188938623539 -18.862249829261074 C33.22599582941842 -18.783864423247362, 33.490102272601455 -18.705479017233646, 34.160235251460605 -18.50658706670804 M34.160235251460605 -18.50658706670804 C34.46924823649487 -18.392867431730707, 34.77826122152914 -18.279147796753378, 35.3333315951478 -18.074876768247425 M34.160235251460605 -18.50658706670804 C34.554629419809906 -18.36144636701577, 34.94902358815921 -18.2163056673235, 35.3333315951478 -18.074876768247425 M35.3333315951478 -18.074876768247425 C35.69454110970602 -17.914980031052046, 36.055750624264256 -17.755083293856664, 36.47635791279238 -17.568892924097174 M35.3333315951478 -18.074876768247425 C35.68447490355159 -17.91943604191322, 36.03561821195538 -17.76399531557901, 36.47635791279238 -17.568892924097174 M36.47635791279238 -17.568892924097174 C36.782505684601254 -17.409175827641494, 37.08865345641012 -17.249458731185815, 37.58461726407678 -16.990714730406097 M36.47635791279238 -17.568892924097174 C36.80969442609779 -17.394991478617968, 37.143030939403204 -17.221090033138765, 37.58461726407678 -16.990714730406097 M37.58461726407678 -16.990714730406097 C37.885782179518486 -16.808146788823844, 38.18694709496019 -16.62557884724159, 38.6535555736057 -16.342718045390892 M37.58461726407678 -16.990714730406097 C37.94236976169553 -16.773843063962573, 38.30012225931428 -16.55697139751905, 38.6535555736057 -16.342718045390892 M38.6535555736057 -16.342718045390892 C39.048788914385874 -16.06702037623821, 39.44402225516605 -15.79132270708553, 39.67878034457871 -15.627565626425154 M38.6535555736057 -16.342718045390892 C39.0341117539081 -16.077258528023467, 39.414667934210506 -15.811799010656042, 39.67878034457871 -15.627565626425154 M39.67878034457871 -15.627565626425154 C39.97214349549538 -15.39361632029042, 40.26550664641204 -15.159667014155685, 40.656078708501866 -14.848196188198123 M39.67878034457871 -15.627565626425154 C40.04911574246315 -15.332233001651138, 40.41945114034758 -15.03690037687712, 40.656078708501866 -14.848196188198123 M40.656078708501866 -14.848196188198123 C40.877851741905104 -14.64678778705422, 41.09962477530835 -14.445379385910318, 41.58143473676799 -14.007812326905688 M40.656078708501866 -14.848196188198123 C40.89485170146885 -14.63134887357271, 41.13362469443584 -14.414501558947297, 41.58143473676799 -14.007812326905688 M41.58143473676799 -14.007812326905688 C41.84878944202256 -13.731746643500824, 42.116144147277126 -13.455680960095957, 42.45104594296865 -13.10986736009568 M41.58143473676799 -14.007812326905688 C41.918534781417826 -13.65972885437635, 42.25563482606766 -13.311645381847013, 42.45104594296865 -13.10986736009568 M42.45104594296865 -13.10986736009568 C42.62214484544041 -12.908884853448999, 42.79324374791217 -12.707902346802316, 43.26133890812658 -12.158051136245305 M42.45104594296865 -13.10986736009568 C42.637535276449995 -12.890806377444806, 42.82402460993134 -12.67174539479393, 43.26133890812658 -12.158051136245305 M43.26133890812658 -12.158051136245305 C43.4920518688536 -11.84891678725421, 43.72276482958062 -11.539782438263115, 44.008983964640635 -11.156274872382312 M43.26133890812658 -12.158051136245305 C43.4678007089569 -11.881411132189676, 43.67426250978721 -11.604771128134047, 44.008983964640635 -11.156274872382312 M44.008983964640635 -11.156274872382312 C44.22827392516981 -10.819386605410058, 44.44756388569898 -10.482498338437805, 44.69090887860425 -10.108655082055241 M44.008983964640635 -11.156274872382312 C44.274573016180206 -10.748258768571363, 44.54016206771978 -10.340242664760414, 44.69090887860425 -10.108655082055241 M44.69090887860425 -10.108655082055241 C44.889179532829424 -9.756605458397614, 45.08745018705461 -9.404555834739986, 45.304311474273504 -9.019496659696287 M44.69090887860425 -10.108655082055241 C44.85547844251632 -9.816445156853975, 45.0200480064284 -9.52423523165271, 45.304311474273504 -9.019496659696287 M45.304311474273504 -9.019496659696287 C45.480954211653454 -8.652694235977705, 45.65759694903341 -8.285891812259123, 45.84667114880834 -7.893275190886684 M45.304311474273504 -9.019496659696287 C45.50280681081138 -8.60731684625556, 45.70130214734925 -8.195137032814836, 45.84667114880834 -7.893275190886684 M45.84667114880834 -7.893275190886684 C45.990201887528116 -7.538751491270783, 46.13373262624789 -7.184227791654882, 46.315759229970325 -6.734618561215508 M45.84667114880834 -7.893275190886684 C45.96521064991859 -7.60048033133902, 46.083750151028845 -7.307685471791356, 46.315759229970325 -6.734618561215508 M46.315759229970325 -6.734618561215508 C46.456775526582085 -6.309899943716552, 46.597791823193845 -5.885181326217595, 46.70964813421488 -5.548287939305138 M46.315759229970325 -6.734618561215508 C46.454650724306234 -6.316299509630144, 46.59354221864214 -5.89798045804478, 46.70964813421488 -5.548287939305138 M46.70964813421488 -5.548287939305138 C46.82732478724259 -5.099535859926443, 46.945001440270296 -4.650783780547749, 47.02671928754556 -4.339158212148133 M46.70964813421488 -5.548287939305138 C46.776841618296615 -5.292050062661262, 46.844035102378356 -5.035812186017386, 47.02671928754556 -4.339158212148133 M47.02671928754556 -4.339158212148133 C47.08111659432259 -4.059839538722949, 47.135513901099614 -3.7805208652977647, 47.265669776581774 -3.1121979531509023 M47.02671928754556 -4.339158212148133 C47.09148260479937 -4.006612265781763, 47.15624592205318 -3.6740663194153944, 47.265669776581774 -3.1121979531509023 M47.265669776581774 -3.1121979531509023 C47.327735072304414 -2.630831775705012, 47.38980036802706 -2.1494655982591215, 47.42551770250937 -1.872449005199798 M47.265669776581774 -3.1121979531509023 C47.324526044406284 -2.655720362388685, 47.38338231223079 -2.199242771626467, 47.42551770250937 -1.872449005199798 M47.42551770250937 -1.872449005199798 C47.44578300878272 -1.5568005021315336, 47.46604831505607 -1.2411519990632691, 47.50560621591342 -0.6250057626472757 M47.42551770250937 -1.872449005199798 C47.45469184143848 -1.418038242437738, 47.4838659803676 -0.9636274796756781, 47.50560621591342 -0.6250057626472757 M47.50560621591342 -0.6250057626472757 C47.50560621591342 -0.18624754105418545, 47.50560621591342 0.2525106805389048, 47.50560621591342 0.625005762647271 M47.50560621591342 -0.6250057626472757 C47.50560621591342 -0.19053997487531643, 47.50560621591342 0.24392581289664284, 47.50560621591342 0.625005762647271 M47.50560621591342 0.625005762647271 C47.479791301083324 1.0270938985501288, 47.45397638625324 1.4291820344529866, 47.42551770250937 1.8724490051997846 M47.50560621591342 0.625005762647271 C47.48902709402924 0.88323896841968, 47.472447972145055 1.141472174192089, 47.42551770250937 1.8724490051997846 M47.42551770250937 1.8724490051997846 C47.364447245190576 2.3460994124384857, 47.303376787871784 2.8197498196771873, 47.265669776581774 3.1121979531508885 M47.42551770250937 1.8724490051997846 C47.37517875327577 2.2628679549057, 47.32483980404216 2.6532869046116145, 47.265669776581774 3.1121979531508885 M47.265669776581774 3.1121979531508885 C47.174816582322926 3.578709903840668, 47.083963388064085 4.045221854530448, 47.02671928754556 4.339158212148129 M47.265669776581774 3.1121979531508885 C47.172818549316304 3.58896938104526, 47.079967322050834 4.065740808939631, 47.02671928754556 4.339158212148129 M47.02671928754556 4.339158212148129 C46.94005612921808 4.669642394901224, 46.8533929708906 5.000126577654321, 46.70964813421489 5.548287939305125 M47.02671928754556 4.339158212148129 C46.93011205601762 4.707563455803171, 46.83350482448968 5.075968699458213, 46.70964813421489 5.548287939305125 M46.70964813421489 5.548287939305125 C46.61360815155226 5.8375450651917475, 46.51756816888964 6.12680219107837, 46.315759229970325 6.734618561215495 M46.70964813421489 5.548287939305125 C46.57796047244552 5.944910194974902, 46.446272810676156 6.341532450644679, 46.315759229970325 6.734618561215495 M46.315759229970325 6.734618561215495 C46.19163623011001 7.041204770625426, 46.067513230249695 7.347790980035358, 45.84667114880834 7.893275190886679 M46.315759229970325 6.734618561215495 C46.15575439045971 7.129833608289841, 45.99574955094909 7.525048655364187, 45.84667114880834 7.893275190886679 M45.84667114880834 7.893275190886679 C45.66083404208902 8.279169919266451, 45.474996935369695 8.665064647646222, 45.304311474273504 9.019496659696284 M45.84667114880834 7.893275190886679 C45.6580761539551 8.284896732985887, 45.46948115910186 8.676518275085096, 45.304311474273504 9.019496659696284 M45.304311474273504 9.019496659696284 C45.14197060089903 9.307749319168648, 44.97962972752456 9.596001978641013, 44.69090887860425 10.108655082055236 M45.304311474273504 9.019496659696284 C45.07423662544749 9.428017851391616, 44.844161776621476 9.83653904308695, 44.69090887860425 10.108655082055236 M44.69090887860425 10.108655082055236 C44.46378780833468 10.457574036536144, 44.23666673806511 10.806492991017052, 44.00898396464064 11.156274872382301 M44.69090887860425 10.108655082055236 C44.543340954976316 10.335359040283615, 44.395773031348384 10.562062998511994, 44.00898396464064 11.156274872382301 M44.00898396464064 11.156274872382301 C43.83490127695443 11.389529814622716, 43.660818589268224 11.62278475686313, 43.26133890812658 12.158051136245302 M44.00898396464064 11.156274872382301 C43.79421344837414 11.444047798182877, 43.57944293210763 11.731820723983454, 43.26133890812658 12.158051136245302 M43.26133890812658 12.158051136245302 C42.97337155981711 12.496313969375915, 42.68540421150764 12.834576802506529, 42.45104594296866 13.10986736009567 M43.26133890812658 12.158051136245302 C42.965701625518506 12.505323510634687, 42.67006434291042 12.852595885024073, 42.45104594296866 13.10986736009567 M42.45104594296866 13.10986736009567 C42.14002804352962 13.431018876310914, 41.829010144090574 13.752170392526157, 41.58143473676799 14.007812326905684 M42.45104594296866 13.10986736009567 C42.13685455242868 13.434295766421098, 41.8226631618887 13.758724172746525, 41.58143473676799 14.007812326905684 M41.58143473676799 14.007812326905684 C41.39352868315925 14.178463633071404, 41.20562262955051 14.349114939237124, 40.65607870850189 14.848196188198111 M41.58143473676799 14.007812326905684 C41.24501619711532 14.313338743471446, 40.90859765746266 14.618865160037208, 40.65607870850189 14.848196188198111 M40.65607870850189 14.848196188198111 C40.27868536947658 15.14915733321227, 39.901292030451266 15.45011847822643, 39.67878034457871 15.627565626425152 M40.65607870850189 14.848196188198111 C40.38340024457407 15.065650006901874, 40.11072178064626 15.283103825605636, 39.67878034457871 15.627565626425152 M39.67878034457871 15.627565626425152 C39.30425005402553 15.888821743960087, 38.92971976347234 16.15007786149502, 38.65355557360571 16.34271804539089 M39.67878034457871 15.627565626425152 C39.32227449022176 15.876248677534866, 38.9657686358648 16.12493172864458, 38.65355557360571 16.34271804539089 M38.65355557360571 16.34271804539089 C38.41846947677491 16.485228618808968, 38.18338337994411 16.62773919222705, 37.58461726407678 16.990714730406093 M38.65355557360571 16.34271804539089 C38.25078536780619 16.586879711087015, 37.84801516200666 16.83104137678314, 37.58461726407678 16.990714730406093 M37.58461726407678 16.990714730406093 C37.341157932234694 17.117727307884966, 37.09769860039261 17.24473988536384, 36.47635791279239 17.56889292409717 M37.58461726407678 16.990714730406093 C37.163478475616806 17.210422566593397, 36.74233968715683 17.430130402780698, 36.47635791279239 17.56889292409717 M36.47635791279239 17.56889292409717 C36.19542407019568 17.693254002608388, 35.91449022759896 17.817615081119605, 35.333331595147804 18.07487676824742 M36.47635791279239 17.56889292409717 C36.180242784590234 17.69997430740908, 35.88412765638809 17.831055690720987, 35.333331595147804 18.07487676824742 M35.333331595147804 18.07487676824742 C35.08901366551404 18.16478802480283, 34.84469573588027 18.254699281358242, 34.16023525146062 18.506587066708033 M35.333331595147804 18.07487676824742 C35.06658323738451 18.1730426296991, 34.79983487962122 18.27120849115078, 34.16023525146062 18.506587066708033 M34.16023525146062 18.506587066708033 C33.80945215904104 18.610697647240137, 33.45866906662146 18.714808227772245, 32.96188938623541 18.86224982926107 M34.16023525146062 18.506587066708033 C33.78634667241963 18.6175552343862, 33.412458093378646 18.728523402064365, 32.96188938623541 18.86224982926107 M32.96188938623541 18.86224982926107 C32.659461882699894 18.931276933419156, 32.357034379164375 19.00030403757724, 31.743218259676766 19.140403561325773 M32.96188938623541 18.86224982926107 C32.58364090056892 18.948582577812402, 32.20539241490243 19.034915326363734, 31.743218259676766 19.140403561325773 M31.743218259676766 19.140403561325773 C31.300901914204083 19.211913837847305, 30.8585855687314 19.28342411436884, 30.50922965284788 19.3399052695533 M31.743218259676766 19.140403561325773 C31.36649024315573 19.201310025467492, 30.989762226634692 19.262216489609212, 30.50922965284788 19.3399052695533 M30.50922965284788 19.3399052695533 C30.087284297267058 19.380609830542646, 29.665338941686237 19.421314391531993, 29.2649942896239 19.45993515863156 M30.50922965284788 19.3399052695533 C30.014008920259016 19.387678618036077, 29.518788187670154 19.435451966518855, 29.2649942896239 19.45993515863156 M29.2649942896239 19.45993515863156 C28.88320622172927 19.472178358863548, 28.501418153834642 19.484421559095534, 28.015625000000004 19.5 M29.2649942896239 19.45993515863156 C28.779785464195445 19.475494861261364, 28.29457663876699 19.49105456389117, 28.015625000000004 19.5 M28.015625000000004 19.5 C28.015625000000004 19.5, 28.015625 19.5, 28.015625 19.5 M28.015625000000004 19.5 C28.015625000000004 19.5, 28.015625000000004 19.5, 28.015625 19.5 M28.015625 19.5 C16.630481915311307 19.5, 5.245338830622618 19.5, -28.015624999999996 19.5 M28.015625 19.5 C8.382790728684434 19.5, -11.250043542631133 19.5, -28.015624999999996 19.5 M-28.015624999999996 19.5 C-28.49562088380717 19.484607466261615, -28.97561676761434 19.46921493252323, -29.264994289623893 19.45993515863156 M-28.015624999999996 19.5 C-28.322951253595523 19.490144645221456, -28.630277507191053 19.48028929044291, -29.264994289623893 19.45993515863156 M-29.264994289623893 19.45993515863156 C-29.516658121999335 19.43565745139234, -29.768321954374777 19.411379744153123, -30.50922965284787 19.3399052695533 M-29.264994289623893 19.45993515863156 C-29.7152909666203 19.416495579762703, -30.16558764361671 19.373056000893847, -30.50922965284787 19.3399052695533 M-30.50922965284787 19.3399052695533 C-30.80968457053724 19.291330048523967, -31.110139488226608 19.242754827494636, -31.74321825967676 19.140403561325773 M-30.50922965284787 19.3399052695533 C-30.79212938573479 19.294168234660336, -31.075029118621703 19.248431199767374, -31.74321825967676 19.140403561325773 M-31.74321825967676 19.140403561325773 C-32.000917683884516 19.081585349396253, -32.25861710809227 19.022767137466733, -32.961889386235384 18.862249829261074 M-31.74321825967676 19.140403561325773 C-31.99804235440729 19.08224162458615, -32.25286644913783 19.02407968784653, -32.961889386235384 18.862249829261074 M-32.961889386235384 18.862249829261074 C-33.33294278294796 18.752123128815807, -33.70399617966053 18.641996428370543, -34.16023525146059 18.506587066708043 M-32.961889386235384 18.862249829261074 C-33.20594076810303 18.789816660174605, -33.449992149970676 18.717383491088132, -34.16023525146059 18.506587066708043 M-34.16023525146059 18.506587066708043 C-34.48213735418903 18.38812411727356, -34.80403945691747 18.269661167839075, -35.3333315951478 18.074876768247425 M-34.16023525146059 18.506587066708043 C-34.439821109383814 18.40369688652896, -34.71940696730703 18.300806706349874, -35.3333315951478 18.074876768247425 M-35.3333315951478 18.074876768247425 C-35.755690024251784 17.88791122050074, -36.178048453355764 17.700945672754056, -36.47635791279238 17.568892924097174 M-35.3333315951478 18.074876768247425 C-35.6361325123973 17.94083578445114, -35.9389334296468 17.806794800654853, -36.47635791279238 17.568892924097174 M-36.47635791279238 17.568892924097174 C-36.711400428613196 17.446271394145374, -36.94644294443401 17.32364986419357, -37.58461726407678 16.990714730406097 M-36.47635791279238 17.568892924097174 C-36.84125470544642 17.378526501097117, -37.206151498100446 17.188160078097056, -37.58461726407678 16.990714730406097 M-37.58461726407678 16.990714730406097 C-37.99932373814225 16.739317228741854, -38.41403021220772 16.487919727077614, -38.653555573605686 16.3427180453909 M-37.58461726407678 16.990714730406097 C-37.915463961341544 16.790153518253195, -38.2463106586063 16.589592306100297, -38.653555573605686 16.3427180453909 M-38.653555573605686 16.3427180453909 C-38.915399082534165 16.16006734858521, -39.177242591462644 15.977416651779516, -39.67878034457871 15.627565626425156 M-38.653555573605686 16.3427180453909 C-38.977988938243534 16.116407374713535, -39.30242230288139 15.890096704036168, -39.67878034457871 15.627565626425156 M-39.67878034457871 15.627565626425156 C-39.95497106989274 15.407310872731085, -40.23116179520678 15.187056119037011, -40.656078708501866 14.848196188198125 M-39.67878034457871 15.627565626425156 C-39.94336213923001 15.416568686007993, -40.20794393388132 15.20557174559083, -40.656078708501866 14.848196188198125 M-40.656078708501866 14.848196188198125 C-40.91126997761729 14.616438229578483, -41.16646124673271 14.38468027095884, -41.581434736767974 14.007812326905697 M-40.656078708501866 14.848196188198125 C-40.856815023723044 14.665892777906107, -41.05755133894422 14.483589367614089, -41.581434736767974 14.007812326905697 M-41.581434736767974 14.007812326905697 C-41.81820831301727 13.763324169956164, -42.05498188926657 13.518836013006629, -42.451045942968655 13.109867360095677 M-41.581434736767974 14.007812326905697 C-41.91971115413077 13.65851415296824, -42.257987571493565 13.309215979030782, -42.451045942968655 13.109867360095677 M-42.451045942968655 13.109867360095677 C-42.64957802359768 12.876660281393416, -42.8481101042267 12.643453202691155, -43.261338908126575 12.158051136245307 M-42.451045942968655 13.109867360095677 C-42.76941404898872 12.735894067106074, -43.087782155008796 12.36192077411647, -43.261338908126575 12.158051136245307 M-43.261338908126575 12.158051136245307 C-43.414624292350815 11.952662685970605, -43.56790967657506 11.747274235695901, -44.008983964640635 11.156274872382316 M-43.261338908126575 12.158051136245307 C-43.47291644630125 11.874556510201504, -43.684493984475914 11.591061884157702, -44.008983964640635 11.156274872382316 M-44.008983964640635 11.156274872382316 C-44.253885857457256 10.780039799649742, -44.498787750273884 10.403804726917167, -44.69090887860425 10.108655082055249 M-44.008983964640635 11.156274872382316 C-44.27620740906182 10.745747902209272, -44.543430853482995 10.33522093203623, -44.69090887860425 10.108655082055249 M-44.69090887860425 10.108655082055249 C-44.864427486828355 9.800555222488962, -45.03794609505247 9.492455362922675, -45.304311474273504 9.019496659696289 M-44.69090887860425 10.108655082055249 C-44.915023120827435 9.710717550960092, -45.13913736305063 9.312780019864936, -45.304311474273504 9.019496659696289 M-45.304311474273504 9.019496659696289 C-45.45378377141352 8.70911423649023, -45.603256068553534 8.398731813284169, -45.84667114880834 7.893275190886686 M-45.304311474273504 9.019496659696289 C-45.43147044445363 8.755448337351156, -45.55862941463375 8.491400015006024, -45.84667114880834 7.893275190886686 M-45.84667114880834 7.893275190886686 C-45.95976028550175 7.613942836824241, -46.07284942219517 7.3346104827617955, -46.315759229970325 6.73461856121551 M-45.84667114880834 7.893275190886686 C-45.96456302541239 7.602079976390311, -46.08245490201644 7.310884761893934, -46.315759229970325 6.73461856121551 M-46.315759229970325 6.73461856121551 C-46.4375371671689 6.367842817052766, -46.55931510436747 6.001067072890022, -46.70964813421488 5.5482879393051325 M-46.315759229970325 6.73461856121551 C-46.4398655396601 6.360830130085042, -46.563971849349876 5.987041698954574, -46.70964813421488 5.5482879393051325 M-46.70964813421488 5.5482879393051325 C-46.77595904468605 5.29541569834818, -46.842269955157214 5.042543457391229, -47.02671928754556 4.339158212148136 M-46.70964813421488 5.5482879393051325 C-46.77560170970877 5.296778371486491, -46.841555285202666 5.045268803667849, -47.02671928754556 4.339158212148136 M-47.02671928754556 4.339158212148136 C-47.09048151273026 4.011752661975793, -47.154243737914946 3.68434711180345, -47.265669776581774 3.112197953150904 M-47.02671928754556 4.339158212148136 C-47.084278470050684 4.04360397512184, -47.141837652555814 3.7480497380955455, -47.265669776581774 3.112197953150904 M-47.265669776581774 3.112197953150904 C-47.32034965407202 2.6881116210997202, -47.375029531562255 2.2640252890485364, -47.42551770250937 1.872449005199809 M-47.265669776581774 3.112197953150904 C-47.323245093186685 2.6656551670954696, -47.380820409791596 2.2191123810400346, -47.42551770250937 1.872449005199809 M-47.42551770250937 1.872449005199809 C-47.44734912435809 1.5324069878994464, -47.46918054620681 1.1923649705990838, -47.50560621591342 0.6250057626472781 M-47.42551770250937 1.872449005199809 C-47.4518142690892 1.4628587545124274, -47.478110835669035 1.053268503825046, -47.50560621591342 0.6250057626472781 M-47.50560621591342 0.6250057626472781 C-47.50560621591342 0.25304517104393565, -47.50560621591342 -0.11891542055940685, -47.50560621591342 -0.6250057626472687 M-47.50560621591342 0.6250057626472781 C-47.50560621591342 0.13054803316161623, -47.50560621591342 -0.3639096963240457, -47.50560621591342 -0.6250057626472687 M-47.50560621591342 -0.6250057626472687 C-47.47613262579269 -1.0840807194313649, -47.446659035671956 -1.543155676215461, -47.42551770250937 -1.8724490051997822 M-47.50560621591342 -0.6250057626472687 C-47.47863254589539 -1.0451424459326009, -47.451658875877364 -1.465279129217933, -47.42551770250937 -1.8724490051997822 M-47.42551770250937 -1.8724490051997822 C-47.390815368588 -2.14159345434295, -47.356113034666635 -2.410737903486117, -47.265669776581774 -3.112197953150895 M-47.42551770250937 -1.8724490051997822 C-47.387272995411145 -2.169067401181932, -47.34902828831293 -2.465685797164082, -47.265669776581774 -3.112197953150895 M-47.265669776581774 -3.112197953150895 C-47.190746644322225 -3.4969124022940816, -47.115823512062676 -3.881626851437268, -47.02671928754556 -4.339158212148126 M-47.265669776581774 -3.112197953150895 C-47.216562289536675 -3.364354520256421, -47.16745480249158 -3.6165110873619466, -47.02671928754556 -4.339158212148126 M-47.02671928754556 -4.339158212148126 C-46.924310263000066 -4.729688207092095, -46.82190123845457 -5.120218202036065, -46.70964813421489 -5.548287939305123 M-47.02671928754556 -4.339158212148126 C-46.92318877053372 -4.733964943924191, -46.81965825352188 -5.128771675700254, -46.70964813421489 -5.548287939305123 M-46.70964813421489 -5.548287939305123 C-46.57225501780069 -5.962094115324384, -46.4348619013865 -6.375900291343645, -46.31575922997033 -6.734618561215485 M-46.70964813421489 -5.548287939305123 C-46.587223178236364 -5.917012400944625, -46.46479822225785 -6.285736862584127, -46.31575922997033 -6.734618561215485 M-46.31575922997033 -6.734618561215485 C-46.12920203029625 -7.19541845124856, -45.94264483062216 -7.656218341281636, -45.84667114880834 -7.893275190886676 M-46.31575922997033 -6.734618561215485 C-46.167240007134936 -7.1014639130427515, -46.01872078429953 -7.468309264870018, -45.84667114880834 -7.893275190886676 M-45.84667114880834 -7.893275190886676 C-45.7187682030944 -8.158868394346314, -45.59086525738045 -8.42446159780595, -45.304311474273504 -9.019496659696282 M-45.84667114880834 -7.893275190886676 C-45.69051344840281 -8.217539997018292, -45.53435574799728 -8.541804803149907, -45.304311474273504 -9.019496659696282 M-45.304311474273504 -9.019496659696282 C-45.078884975403334 -9.419764235348548, -44.85345847653316 -9.820031811000813, -44.69090887860425 -10.108655082055243 M-45.304311474273504 -9.019496659696282 C-45.17919507337273 -9.241653498905018, -45.05407867247196 -9.463810338113756, -44.69090887860425 -10.108655082055243 M-44.69090887860425 -10.108655082055243 C-44.43282931541644 -10.50513459517791, -44.17474975222864 -10.901614108300578, -44.00898396464064 -11.156274872382308 M-44.69090887860425 -10.108655082055243 C-44.54544997189078 -10.33211902395266, -44.39999106517732 -10.555582965850078, -44.00898396464064 -11.156274872382308 M-44.00898396464064 -11.156274872382308 C-43.78608534424079 -11.454938717236047, -43.56318672384094 -11.753602562089785, -43.26133890812659 -12.158051136245302 M-44.00898396464064 -11.156274872382308 C-43.852927690196616 -11.365376063118232, -43.69687141575259 -11.574477253854157, -43.26133890812659 -12.158051136245302 M-43.26133890812659 -12.158051136245302 C-43.099212107945135 -12.348494501014711, -42.937085307763674 -12.53893786578412, -42.45104594296866 -13.10986736009567 M-43.26133890812659 -12.158051136245302 C-43.069889962842296 -12.382937961129821, -42.87844101755801 -12.607824786014342, -42.45104594296866 -13.10986736009567 M-42.45104594296866 -13.10986736009567 C-42.15395460369076 -13.416638559552682, -41.85686326441285 -13.723409759009696, -41.581434736767996 -14.007812326905677 M-42.45104594296866 -13.10986736009567 C-42.2715351095499 -13.295227033714054, -42.09202427613114 -13.480586707332439, -41.581434736767996 -14.007812326905677 M-41.581434736767996 -14.007812326905677 C-41.23397261797682 -14.32336822984794, -40.88651049918564 -14.638924132790203, -40.65607870850189 -14.848196188198107 M-41.581434736767996 -14.007812326905677 C-41.292577585039375 -14.270144749364185, -41.003720433310754 -14.532477171822691, -40.65607870850189 -14.848196188198107 M-40.65607870850189 -14.848196188198107 C-40.33038824901178 -15.10792566265435, -40.00469778952167 -15.367655137110596, -39.67878034457872 -15.627565626425149 M-40.65607870850189 -14.848196188198107 C-40.399333389977464 -15.052943747441471, -40.14258807145304 -15.257691306684835, -39.67878034457872 -15.627565626425149 M-39.67878034457872 -15.627565626425149 C-39.2928919642248 -15.896744655721294, -38.90700358387088 -16.16592368501744, -38.653555573605715 -16.342718045390885 M-39.67878034457872 -15.627565626425149 C-39.3757353486618 -15.838956696970353, -39.072690352744885 -16.050347767515557, -38.653555573605715 -16.342718045390885 M-38.653555573605715 -16.342718045390885 C-38.313925148022996 -16.54860400526905, -37.97429472244028 -16.754489965147215, -37.58461726407679 -16.99071473040609 M-38.653555573605715 -16.342718045390885 C-38.425113624407466 -16.481200897468767, -38.19667167520922 -16.619683749546653, -37.58461726407679 -16.99071473040609 M-37.58461726407679 -16.99071473040609 C-37.356988344873336 -17.10946859175125, -37.12935942566989 -17.22822245309641, -36.47635791279239 -17.56889292409717 M-37.58461726407679 -16.99071473040609 C-37.27177080835829 -17.153926525966714, -36.958924352639784 -17.317138321527338, -36.47635791279239 -17.56889292409717 M-36.47635791279239 -17.56889292409717 C-36.22322609418481 -17.680946871306137, -35.970094275577225 -17.793000818515107, -35.333331595147804 -18.07487676824742 M-36.47635791279239 -17.56889292409717 C-36.03862608435504 -17.76266381969305, -35.60089425591768 -17.95643471528893, -35.333331595147804 -18.07487676824742 M-35.333331595147804 -18.07487676824742 C-34.91871924490021 -18.227457945773086, -34.50410689465262 -18.38003912329875, -34.16023525146062 -18.506587066708033 M-35.333331595147804 -18.07487676824742 C-35.041236844533074 -18.182370336567917, -34.749142093918344 -18.289863904888414, -34.16023525146062 -18.506587066708033 M-34.16023525146062 -18.506587066708033 C-33.913868574679775 -18.57970740317151, -33.66750189789893 -18.65282773963499, -32.96188938623541 -18.862249829261067 M-34.16023525146062 -18.506587066708033 C-33.81922303039933 -18.60779770390935, -33.47821080933803 -18.709008341110664, -32.96188938623541 -18.862249829261067 M-32.96188938623541 -18.862249829261067 C-32.67917436524083 -18.926777687915155, -32.396459344246246 -18.991305546569244, -31.743218259676766 -19.140403561325773 M-32.96188938623541 -18.862249829261067 C-32.66369346893169 -18.93031110147543, -32.36549755162797 -18.998372373689786, -31.743218259676766 -19.140403561325773 M-31.743218259676766 -19.140403561325773 C-31.30466264449226 -19.211305832139214, -30.86610702930776 -19.282208102952655, -30.509229652847882 -19.3399052695533 M-31.743218259676766 -19.140403561325773 C-31.44731518681465 -19.18824287538352, -31.15141211395253 -19.236082189441262, -30.509229652847882 -19.3399052695533 M-30.509229652847882 -19.3399052695533 C-30.080130399424792 -19.381299958463668, -29.651031146001706 -19.422694647374037, -29.264994289623903 -19.45993515863156 M-30.509229652847882 -19.3399052695533 C-30.163316810552367 -19.373275065428487, -29.81740396825685 -19.40664486130368, -29.264994289623903 -19.45993515863156 M-29.264994289623903 -19.45993515863156 C-28.79594738045091 -19.474976580064315, -28.326900471277924 -19.490018001497067, -28.015625000000007 -19.5 M-29.264994289623903 -19.45993515863156 C-28.960883638819702 -19.469687395287377, -28.6567729880155 -19.479439631943194, -28.015625000000007 -19.5 M-28.015625000000007 -19.5 C-28.015625000000004 -19.5, -28.015625000000004 -19.5, -28.015625 -19.5 M-28.015625000000007 -19.5 C-28.015625000000004 -19.5, -28.015625 -19.5, -28.015625 -19.5" stroke="#9370DB" stroke-width="1.3" fill="none" stroke-dasharray="0 0" style=""/></g><g class="label" style="" transform="translate(-35.140625, -12)"><rect/><foreignObject width="70.28125" height="24"><div xmlns="http://www.w3.org/1999/xhtml" style="display: table-cell; white-space: nowrap; line-height: 1.5; max-width: 200px; text-align: center;"><span class="nodeLabel "><p>Aldagaiak</p></span></div></foreignObject></g></g><g class="node default  " id="flowchart-B-1" transform="translate(279.08984375, 124)"><rect class="basic label-container" style="" x="-76.6953125" y="-27" width="153.390625" height="54"/><g class="label" style="" transform="translate(-46.6953125, -12)"><rect/><foreignObject width="93.390625" height="24"><div xmlns="http://www.w3.org/1999/xhtml" style="display: table-cell; white-space: nowrap; line-height: 1.5; max-width: 200px; text-align: center;"><span class="nodeLabel "><p>Kategorikoak</p></span></div></foreignObject></g></g><g class="node default  " id="flowchart-C-3" transform="translate(882.33984375, 124)"><rect class="basic label-container" style="" x="-79.359375" y="-27" width="158.71875" height="54"/><g class="label" style="" transform="translate(-49.359375, -12)"><rect/><foreignObject width="98.71875" height="24"><div xmlns="http://www.w3.org/1999/xhtml" style="display: table-cell; white-space: nowrap; line-height: 1.5; max-width: 200px; text-align: center;"><span class="nodeLabel "><p>Zenbakizkoak</p></span></div></foreignObject></g></g><g class="node default  " id="flowchart-D-5" transform="translate(128.7265625, 240)"><rect class="basic label-container" style="" x="-120.7265625" y="-27" width="241.453125" height="54"/><g class="label" style="" transform="translate(-90.7265625, -12)"><rect/><foreignObject width="181.453125" height="24"><div xmlns="http://www.w3.org/1999/xhtml" style="display: table-cell; white-space: nowrap; line-height: 1.5; max-width: 200px; text-align: center;"><span class="nodeLabel "><p>Nominalak\nordenik gabe</p></span></div></foreignObject></g></g><g class="node default  " id="flowchart-E-7" transform="translate(429.453125, 240)"><rect class="basic label-container" style="" x="-130" y="-39" width="260" height="78"/><g class="label" style="" transform="translate(-100, -24)"><rect/><foreignObject width="200" height="48"><div xmlns="http://www.w3.org/1999/xhtml" style="display: table; white-space: break-spaces; line-height: 1.5; max-width: 200px; text-align: center; width: 200px;"><span class="nodeLabel "><p>Ordinalak\nordena · tarte ez-konstante</p></span></div></foreignObject></g></g><g class="node default  " id="flowchart-F-9" transform="translate(735.0625, 240)"><rect class="basic label-container" style="" x="-125.609375" y="-27" width="251.21875" height="54"/><g class="label" style="" transform="translate(-95.609375, -12)"><rect/><foreignObject width="191.21875" height="24"><div xmlns="http://www.w3.org/1999/xhtml" style="display: table-cell; white-space: nowrap; line-height: 1.5; max-width: 200px; text-align: center;"><span class="nodeLabel "><p>Diskretuak\nzenbaki osoak</p></span></div></foreignObject></g></g><g class="node default  " id="flowchart-G-11" transform="translate(1029.6171875, 240)"><rect class="basic label-container" style="" x="-118.9453125" y="-27" width="237.890625" height="54"/><g class="label" style="" transform="translate(-88.9453125, -12)"><rect/><foreignObject width="177.890625" height="24"><div xmlns="http://www.w3.org/1999/xhtml" style="display: table-cell; white-space: nowrap; line-height: 1.5; max-width: 200px; text-align: center;"><span class="nodeLabel "><p>Jarraituak\nedozein balio</p></span></div></foreignObject></g></g></g></g></g></svg>