<?xml version="1.0" encoding="UTF-8"?>
<svg id="Capa_2" xmlns="http://www.w3.org/2000/svg" version="1.1" viewBox="0 0 992.13 362.83">
  <!-- Generator: Adobe Illustrator 30.1.0, SVG Export Plug-In . SVG Version: 2.1.1 Build 136)  -->
  <defs>
    <style>
      .st0 {
        fill: none;
        stroke: #fff;
        stroke-miterlimit: 10;
        stroke-width: 4px;
      }

      .st1 {
        fill: #1d1d1b;
      }

      .st2 {
        fill: #fff;
      }

      .st3 {
        fill: #9d9d9c;
      }
    </style>
  </defs>
  <rect class="st1" width="992.13" height="362.83"/>
  <g>
    <g>
      <path class="st2" d="M100.56,244.04h42.89v9.01h-32.46v15.6h30.04v8.51h-30.04v17.44h33.04v9.01h-43.47v-59.58h0Z"/>
      <path class="st2" d="M152.88,244.04h10.43v23.7h27.12v-23.7h10.43v59.58h-10.43v-26.87h-27.12v26.87h-10.43v-59.58Z"/>
      <path class="st2" d="M212.71,244.04h10.43v34.71c0,2,.1,4.03.29,6.09.19,2.06.75,3.91,1.67,5.55.92,1.64,2.31,2.99,4.17,4.05s4.49,1.58,7.89,1.58,6.02-.53,7.89-1.58c1.86-1.06,3.25-2.41,4.17-4.05.92-1.64,1.47-3.49,1.67-5.55.19-2.06.29-4.09.29-6.09v-34.71h10.43v38.13c0,3.84-.58,7.18-1.75,10.01-1.17,2.84-2.82,5.21-4.97,7.13-2.14,1.92-4.71,3.35-7.72,4.3s-6.34,1.42-10.01,1.42-7.01-.47-10.01-1.42-5.58-2.38-7.72-4.3c-2.14-1.92-3.8-4.3-4.96-7.13-1.17-2.84-1.75-6.17-1.75-10.01v-38.13h0Z"/>
    </g>
    <path class="st2" d="M141.03,185.71l.13,27.36c0,3.06.63,3.39,3.74,3.42,18.29.12,36.59-.32,54.88-1.53,2.34-.16,3.02-1.02,3.16-3.57l2.06-37.8c.1-1.74.72-2.72,1.45-2.91,3.76-2.47,28.54-7.85,41.05-10.08,5.3-1.03,6.9-3.82,9.37-12.59l1.67-5.92c.54-1.63,2.35-2.41,4.2-2.83l23.73-1.61c1.73-.05,2.42-1.36,2.37-3.58l-.53-60.3c0-1.15-.78-1.6-2.33-1.64-11.34-.32-21.85-3.13-28.93-8.5-1.94-1.47-5.93-2.34-10.02-2.79-2.16-.25-5.05.39-5.86.51-7.91-.31-14.32-.61-22.24-.93-1.65.2-2.18,1.15-2.29,2.68l-.03,15.84c.04,1.34,1.48,1.63,5.37,2.17,7.92-.24,12.74,1.22,18.32,2.72,1.13.3,1.93,1.06,2.14,2.36.5,3.12,1.14,5.61,1.24,8.64.1,2.99-.37,6.02-.27,9.01.03.81-.6,1.21-1.45,1.25-3.95.19-7.73-.1-11.35-.83-1.5-.3-1.63-1.14-1.95-2.9-.44-2.46-1.1-4.05-1.77-6.41-.12-.42-.34-.6-.69-.61l-11.69-.1c-1.66-.01-2.51,3.63-2.55,5.68-.66,4.91-.33,15.98-.08,25.23-.02,1.46-.16,1.69,1.53,1.82l10.15.8c2.01.17,2.62,1.42,2.68,2.54l.34,7.06c.13,1.52-.58,2.31-2,2.5-7.8.7-15.44,1.14-23.61.86-.99.02-1.55-.8-1.6-1.99l-.15-9.62c-.08-1.62-.07-2.36-1.52-2.67-6.58-1.4-13.09-3.14-19.76-3.78-1.36-.13-3-.49-4.38-.55-2.89-.14-5.5.61-8.52.81-1.36.17-1.83.51-1.99,1.41-.56,6.45-.18,14.94.49,17.18.37,1.37.59,1.52,1.92,1.63,3.06.22,6.52,1.01,9.59,1.14,1.17.05,1.43,1,1.4,2.35l-.56,23.41c-.03,1.42-1.33,2.08-2.67,2.11-2.4.05-4.7.64-7.1.71-1.53.05-2.32-1.04-2.71-2.4-.86-2.99-1.77-5.51-2.36-8.57-.36-1.88-2.06-2.56-5.19-2.92l-18.7-2.16c-1.4-.42-2.13-.89-2.32-2.02l-.5-6.48c-.16-.95-.3-2.17.2-2.88,1.06-1.05,6.41-2.87,9.62-4.12,1.35-.52,1.15-1.37,1.07-2.5-.06-5.14-1.67-11.27-3.07-16.76-.7-2.77-.48-2.82-3.26-2.91-1.19-.1-2.66-.13-3.85-.23-3.91-.31-6.62-.13-10.38-1-.9-.1-2.49-1.83-2.18-2.85l6.01-17.97c.46-1.36.8-1.63,2.33-1.42l6.02.85c.92.13,1.63,1.08,1.8,2.19l.92,5.86c.18,1.13-.22,1.58,1.59,1.64l14.91.49c1.11.04,1.48-.86,1.63-1.61.57-2.81,1.18-5.63,1.75-8.44.45-2.23.5-3.39.53-5.67.04-3.15.08-6.26.12-9.41.02-1.67-1.09-1.83-2.51-2.52-5.38-2.61-18.49-4.96-27.87-6.57-1.11-.19-2.99-.04-4.11-.23-1.29-.22-1.74-2.09-2-2.69l-2.78-6.38c-.49-1.12-1.06-2.23-3.78-2.37-13.94-.71-27.78-1.23-41.18-.87-2.33.06-2.55.95-2.55,3.85l.03,81.16c0,1.84.61,4.4,2.84,4.43l27.67.44c1.03.02,1.38.78,1.43,1.63.35,6.77,1.96,12.72,2.93,19.44.52,3.6,1.7,8.86,5.01,9.22l24.77,2.73c2.22.25,3.03.75,3.04,2.91"/>
  </g>
  <line class="st0" x1="362.38" y1="60.31" x2="362.38" y2="303.41"/>
  <g>
    <path class="st2" d="M440.2,60.7v12.89h15.79v-12.89h3.99v29.99h-3.99v-13.73h-15.79v13.73h-3.99v-29.99h3.99Z"/>
    <path class="st2" d="M487.24,60.7v3.36h-16.72v9.53h15.58v3.36h-15.58v10.37h16.84v3.36h-20.83v-29.99h20.71Z"/>
    <path class="st2" d="M508.49,64.06h-17.22v-3.36h21.92v3.36l-18.61,23.27h19.11v3.36h-23.86v-3.36l18.65-23.27Z"/>
    <path class="st2" d="M521.85,60.7v14.95l15.2-14.95h5.17l-12.64,12.1,13.15,17.89h-5.04l-10.84-15.16-5,4.66v10.5h-3.99v-29.99h3.99Z"/>
    <path class="st2" d="M566.74,88.49c-2.04,1.92-4.96,2.88-8.74,2.88s-6.88-.92-9.05-2.75c-2.17-1.83-3.25-4.75-3.25-8.76v-19.15h3.99v19.15c0,2.69.71,4.73,2.14,6.11,1.43,1.39,3.49,2.08,6.17,2.08,2.55,0,4.49-.69,5.82-2.08,1.33-1.39,1.99-3.42,1.99-6.11v-19.15h3.99v19.15c0,3.84-1.02,6.71-3.07,8.63Z"/>
    <path class="st2" d="M580.39,60.7l15.79,24.32h.08v-24.32h3.78v29.99h-4.37l-15.67-24.07h-.08v24.07h-3.78v-29.99h4.24Z"/>
    <path class="st2" d="M603.32,64.06v-3.36h23.98v3.36h-10v26.63h-3.99v-26.63h-10Z"/>
    <path class="st2" d="M646.92,64.06h-17.22v-3.36h21.92v3.36l-18.61,23.27h19.11v3.36h-23.86v-3.36l18.65-23.27Z"/>
    <path class="st2" d="M668.84,60.7l11.72,29.99h-4.41l-3.28-9.03h-12.68l-3.36,9.03h-4.07l11.68-29.99h4.41ZM671.62,78.3l-5-13.99h-.08l-5.08,13.99h10.16Z"/>
    <path class="st2" d="M688.37,86.03v4.24c0,1.6-.36,2.97-1.09,4.12-.73,1.15-1.9,1.96-3.53,2.44v-2.1c.48-.17.87-.41,1.2-.74.32-.32.58-.67.78-1.05.2-.38.33-.76.4-1.16.07-.39.09-.76.06-1.09h-2.48v-4.66h4.66Z"/>
    <path class="st2" d="M726.55,60.7v3.36h-15.71v9.53h13.78v3.36h-13.78v13.73h-3.99v-29.99h19.7Z"/>
    <path class="st2" d="M735.12,60.7v29.99h-3.99v-29.99h3.99Z"/>
    <path class="st2" d="M745.83,60.7v26.63h15.88v3.36h-19.87v-29.99h3.99Z"/>
    <path class="st2" d="M764.41,69.8c.6-1.89,1.5-3.56,2.71-5.02,1.2-1.46,2.7-2.62,4.49-3.49,1.79-.87,3.88-1.3,6.26-1.3s4.47.43,6.26,1.3c1.79.87,3.29,2.03,4.49,3.49,1.2,1.46,2.11,3.13,2.71,5.02.6,1.89.9,3.86.9,5.9s-.3,4.01-.9,5.9c-.6,1.89-1.5,3.56-2.71,5.02-1.2,1.46-2.7,2.61-4.49,3.47-1.79.85-3.88,1.28-6.26,1.28s-4.47-.43-6.26-1.28c-1.79-.85-3.29-2.01-4.49-3.47-1.2-1.46-2.11-3.13-2.71-5.02-.6-1.89-.9-3.86-.9-5.9s.3-4.01.9-5.9ZM768.09,80.17c.39,1.47,1.01,2.79,1.85,3.97.84,1.18,1.92,2.12,3.23,2.83,1.32.71,2.88,1.07,4.7,1.07s3.39-.36,4.7-1.07c1.32-.71,2.39-1.66,3.23-2.83.84-1.18,1.46-2.5,1.85-3.97.39-1.47.59-2.96.59-4.47s-.2-3-.59-4.47c-.39-1.47-1.01-2.79-1.85-3.97-.84-1.18-1.92-2.12-3.23-2.83-1.32-.71-2.88-1.07-4.7-1.07s-3.39.36-4.7,1.07-2.39,1.66-3.23,2.83c-.84,1.18-1.46,2.5-1.85,3.97-.39,1.47-.59,2.96-.59,4.47s.2,3,.59,4.47Z"/>
    <path class="st2" d="M812.12,64.8c-1.33-.97-3.03-1.45-5.1-1.45-.84,0-1.67.08-2.48.25-.81.17-1.53.45-2.16.84-.63.39-1.13.92-1.51,1.58-.38.66-.57,1.48-.57,2.46,0,.92.27,1.67.82,2.25.55.57,1.27,1.04,2.18,1.41.91.36,1.94.67,3.09.9,1.15.24,2.32.5,3.51.78,1.19.28,2.36.61,3.51.99,1.15.38,2.18.89,3.09,1.53.91.64,1.64,1.46,2.18,2.44.55.98.82,2.21.82,3.7,0,1.6-.36,2.96-1.07,4.09-.71,1.13-1.63,2.06-2.75,2.77-1.12.71-2.37,1.23-3.76,1.55-1.39.32-2.77.48-4.14.48-1.68,0-3.27-.21-4.77-.63s-2.81-1.06-3.95-1.91c-1.13-.85-2.03-1.95-2.69-3.28-.66-1.33-.99-2.9-.99-4.73h3.78c0,1.26.25,2.35.74,3.25.49.91,1.13,1.66,1.93,2.25.8.59,1.73,1.02,2.79,1.3,1.06.28,2.16.42,3.28.42.9,0,1.8-.08,2.71-.25.91-.17,1.73-.45,2.46-.86.73-.41,1.32-.96,1.76-1.66.45-.7.67-1.6.67-2.69,0-1.04-.27-1.88-.82-2.52-.55-.64-1.27-1.17-2.18-1.58-.91-.41-1.94-.73-3.09-.99-1.15-.25-2.32-.51-3.51-.78-1.19-.27-2.36-.57-3.51-.92-1.15-.35-2.18-.81-3.09-1.39-.91-.57-1.64-1.32-2.18-2.23-.55-.91-.82-2.05-.82-3.42,0-1.51.31-2.82.92-3.93.62-1.11,1.43-2.02,2.46-2.73,1.02-.71,2.18-1.25,3.49-1.6,1.3-.35,2.64-.53,4.01-.53,1.54,0,2.97.18,4.28.55s2.47.94,3.47,1.72c.99.78,1.78,1.77,2.35,2.96.57,1.19.89,2.61.95,4.26h-3.78c-.22-2.16-1-3.72-2.33-4.68Z"/>
    <path class="st2" d="M823.55,69.8c.6-1.89,1.5-3.56,2.71-5.02,1.2-1.46,2.7-2.62,4.49-3.49,1.79-.87,3.88-1.3,6.26-1.3s4.47.43,6.26,1.3c1.79.87,3.29,2.03,4.49,3.49,1.2,1.46,2.11,3.13,2.71,5.02.6,1.89.9,3.86.9,5.9s-.3,4.01-.9,5.9c-.6,1.89-1.5,3.56-2.71,5.02-1.2,1.46-2.7,2.61-4.49,3.47-1.79.85-3.88,1.28-6.26,1.28s-4.47-.43-6.26-1.28c-1.79-.85-3.29-2.01-4.49-3.47-1.2-1.46-2.11-3.13-2.71-5.02-.6-1.89-.9-3.86-.9-5.9s.3-4.01.9-5.9ZM827.22,80.17c.39,1.47,1.01,2.79,1.85,3.97.84,1.18,1.92,2.12,3.23,2.83,1.32.71,2.88,1.07,4.7,1.07s3.39-.36,4.7-1.07c1.32-.71,2.39-1.66,3.23-2.83.84-1.18,1.46-2.5,1.85-3.97.39-1.47.59-2.96.59-4.47s-.2-3-.59-4.47c-.39-1.47-1.01-2.79-1.85-3.97-.84-1.18-1.92-2.12-3.23-2.83-1.32-.71-2.88-1.07-4.7-1.07s-3.39.36-4.7,1.07-2.39,1.66-3.23,2.83c-.84,1.18-1.46,2.5-1.85,3.97-.39,1.47-.59,2.96-.59,4.47s.2,3,.59,4.47Z"/>
    <path class="st2" d="M875.94,60.7v3.36h-15.71v9.53h13.78v3.36h-13.78v13.73h-3.99v-29.99h19.7Z"/>
    <path class="st2" d="M884.51,60.7v29.99h-3.99v-29.99h3.99Z"/>
    <path class="st2" d="M903.79,60.7l11.72,29.99h-4.41l-3.28-9.03h-12.68l-3.36,9.03h-4.07l11.68-29.99h4.41ZM906.56,78.3l-5-13.99h-.08l-5.08,13.99h10.16Z"/>
    <path class="st2" d="M456.92,101.7v3.36h-16.72v9.53h15.58v3.36h-15.58v10.37h16.84v3.36h-20.83v-29.99h20.71Z"/>
    <path class="st2" d="M458.68,105.06v-3.36h23.98v3.36h-10v26.63h-3.99v-26.63h-10Z"/>
    <path class="st2" d="M494.67,101.7l11.72,29.99h-4.41l-3.28-9.03h-12.68l-3.36,9.03h-4.07l11.68-29.99h4.41ZM497.44,119.3l-5-13.99h-.08l-5.08,13.99h10.16Z"/>
    <path class="st2" d="M533.56,101.7l11.72,29.99h-4.41l-3.28-9.03h-12.68l-3.36,9.03h-4.07l11.68-29.99h4.41ZM536.34,119.3l-5-13.99h-.08l-5.08,13.99h10.16Z"/>
    <path class="st2" d="M552.42,101.7l15.79,24.32h.08v-24.32h3.78v29.99h-4.37l-15.67-24.07h-.08v24.07h-3.78v-29.99h4.24Z"/>
    <path class="st2" d="M575.35,105.06v-3.36h23.98v3.36h-10v26.63h-3.99v-26.63h-10Z"/>
    <path class="st2" d="M616.76,101.7c2.86,0,5.09.7,6.7,2.1,1.61,1.4,2.42,3.32,2.42,5.75,0,1.82-.41,3.42-1.24,4.79-.83,1.37-2.15,2.31-3.97,2.81v.08c.87.17,1.58.45,2.12.84.55.39.98.86,1.3,1.41.32.55.56,1.16.71,1.83s.27,1.37.36,2.1c.06.73.1,1.47.13,2.23.03.76.1,1.5.21,2.23.11.73.27,1.42.48,2.08.21.66.52,1.24.94,1.74h-4.45c-.28-.31-.47-.73-.57-1.26-.1-.53-.16-1.13-.19-1.79-.03-.66-.06-1.37-.08-2.12-.03-.76-.11-1.5-.25-2.23-.11-.73-.25-1.42-.42-2.08-.17-.66-.43-1.23-.8-1.72-.36-.49-.84-.88-1.43-1.18s-1.37-.44-2.35-.44h-9.74v12.81h-3.99v-29.99h14.11ZM617.6,115.31c.84-.14,1.58-.41,2.21-.82.63-.41,1.13-.95,1.51-1.64.38-.69.57-1.58.57-2.67,0-1.51-.42-2.74-1.26-3.7-.84-.95-2.2-1.43-4.07-1.43h-9.91v10.46h8.32c.92,0,1.81-.07,2.65-.21Z"/>
    <path class="st2" d="M630.64,110.8c.6-1.89,1.5-3.56,2.71-5.02,1.2-1.46,2.7-2.62,4.49-3.49,1.79-.87,3.88-1.3,6.26-1.3s4.47.43,6.26,1.3c1.79.87,3.29,2.03,4.49,3.49,1.2,1.46,2.11,3.13,2.71,5.02.6,1.89.9,3.86.9,5.9s-.3,4.01-.9,5.9c-.6,1.89-1.5,3.56-2.71,5.02-1.2,1.46-2.7,2.61-4.49,3.47-1.79.85-3.88,1.28-6.26,1.28s-4.47-.43-6.26-1.28c-1.79-.85-3.29-2.01-4.49-3.47-1.2-1.46-2.11-3.13-2.71-5.02-.6-1.89-.9-3.86-.9-5.9s.3-4.01.9-5.9ZM634.32,121.17c.39,1.47,1.01,2.79,1.85,3.97.84,1.18,1.92,2.12,3.23,2.83,1.32.71,2.88,1.07,4.7,1.07s3.39-.36,4.7-1.07c1.32-.71,2.39-1.66,3.23-2.83.84-1.18,1.46-2.5,1.85-3.97.39-1.47.59-2.96.59-4.47s-.2-3-.59-4.47c-.39-1.47-1.01-2.79-1.85-3.97-.84-1.18-1.92-2.12-3.23-2.83-1.32-.71-2.88-1.07-4.7-1.07s-3.39.36-4.7,1.07-2.39,1.66-3.23,2.83c-.84,1.18-1.46,2.5-1.85,3.97-.39,1.47-.59,2.96-.59,4.47s.2,3,.59,4.47Z"/>
    <path class="st2" d="M676.49,101.7c3.02,0,5.31.78,6.87,2.33,1.55,1.55,2.33,3.73,2.33,6.53s-.78,4.98-2.33,6.55c-1.55,1.57-3.84,2.34-6.87,2.31h-9.16v12.26h-3.99v-29.99h13.15ZM675.14,116.07c2.27.03,3.93-.43,4.98-1.39,1.05-.95,1.58-2.32,1.58-4.12s-.52-3.16-1.58-4.1c-1.05-.94-2.71-1.41-4.98-1.41h-7.81v11h7.81Z"/>
    <path class="st2" d="M689.78,110.8c.6-1.89,1.5-3.56,2.71-5.02,1.2-1.46,2.7-2.62,4.49-3.49,1.79-.87,3.88-1.3,6.26-1.3s4.47.43,6.26,1.3c1.79.87,3.29,2.03,4.49,3.49,1.2,1.46,2.11,3.13,2.71,5.02.6,1.89.9,3.86.9,5.9s-.3,4.01-.9,5.9c-.6,1.89-1.5,3.56-2.71,5.02-1.2,1.46-2.7,2.61-4.49,3.47-1.79.85-3.88,1.28-6.26,1.28s-4.47-.43-6.26-1.28c-1.79-.85-3.29-2.01-4.49-3.47-1.2-1.46-2.11-3.13-2.71-5.02-.6-1.89-.9-3.86-.9-5.9s.3-4.01.9-5.9ZM693.46,121.17c.39,1.47,1.01,2.79,1.85,3.97.84,1.18,1.92,2.12,3.23,2.83,1.32.71,2.88,1.07,4.7,1.07s3.39-.36,4.7-1.07c1.32-.71,2.39-1.66,3.23-2.83.84-1.18,1.46-2.5,1.85-3.97.39-1.47.59-2.96.59-4.47s-.2-3-.59-4.47c-.39-1.47-1.01-2.79-1.85-3.97-.84-1.18-1.92-2.12-3.23-2.83-1.32-.71-2.88-1.07-4.7-1.07s-3.39.36-4.7,1.07-2.39,1.66-3.23,2.83c-.84,1.18-1.46,2.5-1.85,3.97-.39,1.47-.59,2.96-.59,4.47s.2,3,.59,4.47Z"/>
    <path class="st2" d="M726.47,101.7v26.63h15.88v3.36h-19.87v-29.99h3.99Z"/>
    <path class="st2" d="M745.05,110.8c.6-1.89,1.5-3.56,2.71-5.02,1.2-1.46,2.7-2.62,4.49-3.49,1.79-.87,3.88-1.3,6.26-1.3s4.47.43,6.26,1.3c1.79.87,3.29,2.03,4.49,3.49,1.2,1.46,2.11,3.13,2.71,5.02.6,1.89.9,3.86.9,5.9s-.3,4.01-.9,5.9c-.6,1.89-1.5,3.56-2.71,5.02-1.2,1.46-2.7,2.61-4.49,3.47-1.79.85-3.88,1.28-6.26,1.28s-4.47-.43-6.26-1.28c-1.79-.85-3.29-2.01-4.49-3.47-1.2-1.46-2.11-3.13-2.71-5.02-.6-1.89-.9-3.86-.9-5.9s.3-4.01.9-5.9ZM748.73,121.17c.39,1.47,1.01,2.79,1.85,3.97.84,1.18,1.92,2.12,3.23,2.83,1.32.71,2.88,1.07,4.7,1.07s3.39-.36,4.7-1.07c1.32-.71,2.39-1.66,3.23-2.83.84-1.18,1.46-2.5,1.85-3.97.39-1.47.59-2.96.59-4.47s-.2-3-.59-4.47c-.39-1.47-1.01-2.79-1.85-3.97-.84-1.18-1.92-2.12-3.23-2.83-1.32-.71-2.88-1.07-4.7-1.07s-3.39.36-4.7,1.07-2.39,1.66-3.23,2.83c-.84,1.18-1.46,2.5-1.85,3.97-.39,1.47-.59,2.96-.59,4.47s.2,3,.59,4.47Z"/>
    <path class="st2" d="M795.81,131.33c-1.74.69-3.49,1.03-5.25,1.03-2.24,0-4.24-.41-6.01-1.24s-3.26-1.94-4.49-3.34c-1.23-1.4-2.17-3.01-2.81-4.83-.64-1.82-.97-3.71-.97-5.67,0-2.18.3-4.26.9-6.24.6-1.97,1.5-3.7,2.69-5.19,1.19-1.48,2.67-2.67,4.45-3.55,1.78-.88,3.86-1.32,6.24-1.32,1.62,0,3.16.19,4.6.57,1.44.38,2.73.97,3.86,1.78,1.13.81,2.09,1.84,2.86,3.09.77,1.25,1.29,2.75,1.58,4.52h-3.99c-.2-1.15-.56-2.13-1.09-2.96-.53-.83-1.19-1.5-1.97-2.04-.78-.53-1.67-.93-2.67-1.2s-2.05-.4-3.17-.4c-1.82,0-3.38.36-4.68,1.09-1.3.73-2.37,1.69-3.19,2.88-.83,1.19-1.44,2.55-1.83,4.07-.39,1.53-.59,3.09-.59,4.68s.22,3.07.67,4.52c.45,1.44,1.11,2.72,1.97,3.82.87,1.11,1.94,1.99,3.21,2.65,1.27.66,2.75.99,4.43.99,1.57,0,2.95-.25,4.16-.76,1.2-.5,2.22-1.2,3.04-2.08.83-.88,1.45-1.92,1.87-3.11.42-1.19.6-2.47.55-3.84h-9.58v-3.36h13.15v15.79h-2.52l-1.05-3.74c-1.18,1.57-2.63,2.69-4.37,3.38Z"/>
    <path class="st2" d="M813.78,101.7v29.99h-3.99v-29.99h3.99Z"/>
    <path class="st2" d="M833.06,101.7l11.72,29.99h-4.41l-3.28-9.03h-12.68l-3.36,9.03h-4.07l11.68-29.99h4.41ZM835.83,119.3l-5-13.99h-.08l-5.08,13.99h10.16Z"/>
    <path class="st2" d="M455.91,142.7v3.36h-15.71v9.53h13.78v3.36h-13.78v13.73h-3.99v-29.99h19.7Z"/>
    <path class="st2" d="M470.56,142.7l11.72,29.99h-4.41l-3.28-9.03h-12.68l-3.36,9.03h-4.07l11.68-29.99h4.41ZM473.34,160.3l-5-13.99h-.08l-5.08,13.99h10.16Z"/>
    <path class="st2" d="M489.21,142.7v14.95l15.2-14.95h5.17l-12.64,12.1,13.15,17.89h-5.04l-10.84-15.16-5,4.66v10.5h-3.99v-29.99h3.99Z"/>
    <path class="st2" d="M534.11,170.49c-2.04,1.92-4.96,2.88-8.74,2.88s-6.88-.92-9.05-2.75c-2.17-1.83-3.25-4.75-3.25-8.76v-19.15h3.99v19.15c0,2.69.71,4.73,2.14,6.11,1.43,1.39,3.49,2.08,6.17,2.08,2.55,0,4.49-.69,5.82-2.08,1.33-1.39,1.99-3.42,1.99-6.11v-19.15h3.99v19.15c0,3.84-1.02,6.71-3.07,8.63Z"/>
    <path class="st2" d="M547.55,142.7v26.63h15.88v3.36h-19.87v-29.99h3.99Z"/>
    <path class="st2" d="M559.85,146.06v-3.36h23.98v3.36h-10v26.63h-3.99v-26.63h-10Z"/>
    <path class="st2" d="M595.85,142.7l11.72,29.99h-4.41l-3.28-9.03h-12.68l-3.36,9.03h-4.07l11.68-29.99h4.41ZM598.62,160.3l-5-13.99h-.08l-5.08,13.99h10.16Z"/>
    <path class="st2" d="M603.45,146.06v-3.36h23.98v3.36h-10v26.63h-3.99v-26.63h-10Z"/>
    <path class="st2" d="M651.46,142.7v3.36h-16.72v9.53h15.58v3.36h-15.58v10.37h16.84v3.36h-20.83v-29.99h20.71Z"/>
    <path class="st2" d="M668.97,142.7l11.72,29.99h-4.41l-3.28-9.03h-12.68l-3.36,9.03h-4.07l11.68-29.99h4.41ZM671.74,160.3l-5-13.99h-.08l-5.08,13.99h10.16Z"/>
    <path class="st3" d="M455.91,189.7v3.36h-15.71v9.53h13.78v3.36h-13.78v13.73h-3.99v-29.99h19.7Z"/>
    <path class="st3" d="M470.56,189.7l11.72,29.99h-4.41l-3.28-9.03h-12.68l-3.36,9.03h-4.07l11.68-29.99h4.41ZM473.34,207.3l-5-13.99h-.08l-5.08,13.99h10.16Z"/>
    <path class="st3" d="M503.35,193.95c-1.53-1.06-3.34-1.6-5.44-1.6-1.79,0-3.33.34-4.6,1.01-1.27.67-2.33,1.58-3.15,2.71-.83,1.13-1.44,2.43-1.83,3.88-.39,1.46-.59,2.97-.59,4.54,0,1.71.2,3.33.59,4.85.39,1.53,1,2.86,1.83,3.99.83,1.13,1.88,2.04,3.17,2.71s2.83,1.01,4.62,1.01c1.32,0,2.48-.22,3.51-.65,1.02-.43,1.9-1.04,2.65-1.81.74-.77,1.32-1.69,1.74-2.75.42-1.06.67-2.21.76-3.44h3.99c-.39,3.78-1.69,6.72-3.91,8.82-2.21,2.1-5.24,3.15-9.07,3.15-2.32,0-4.35-.4-6.09-1.2-1.74-.8-3.18-1.9-4.33-3.3-1.15-1.4-2.01-3.05-2.58-4.96-.57-1.9-.86-3.95-.86-6.13s.31-4.23.92-6.15c.62-1.92,1.52-3.59,2.71-5.02,1.19-1.43,2.67-2.55,4.45-3.38,1.78-.83,3.82-1.24,6.11-1.24,1.57,0,3.05.21,4.45.63,1.4.42,2.65,1.04,3.74,1.85,1.09.81,2,1.83,2.73,3.04.73,1.22,1.2,2.62,1.43,4.22h-3.99c-.45-2.13-1.44-3.72-2.96-4.79Z"/>
    <path class="st3" d="M536.42,217.49c-2.04,1.92-4.96,2.88-8.74,2.88s-6.88-.92-9.05-2.75c-2.17-1.83-3.25-4.75-3.25-8.76v-19.15h3.99v19.15c0,2.69.71,4.72,2.14,6.11,1.43,1.39,3.49,2.08,6.17,2.08,2.55,0,4.49-.69,5.82-2.08,1.33-1.39,1.99-3.42,1.99-6.11v-19.15h3.99v19.15c0,3.84-1.02,6.71-3.07,8.63Z"/>
    <path class="st3" d="M549.86,189.7v26.63h15.88v3.36h-19.87v-29.99h3.99Z"/>
    <path class="st3" d="M562.16,193.06v-3.36h23.98v3.36h-10v26.63h-3.99v-26.63h-10Z"/>
    <path class="st3" d="M598.16,189.7l11.72,29.99h-4.41l-3.28-9.03h-12.68l-3.36,9.03h-4.07l11.68-29.99h4.41ZM600.93,207.3l-5-13.99h-.08l-5.08,13.99h10.16Z"/>
    <path class="st3" d="M623.11,189.7c4.62,0,8.17,1.18,10.67,3.53,2.49,2.35,3.74,5.94,3.74,10.75,0,2.52-.28,4.75-.84,6.7-.56,1.95-1.43,3.58-2.6,4.91-1.18,1.33-2.67,2.34-4.49,3.04-1.82.7-3.98,1.05-6.47,1.05h-10.29v-29.99h10.29ZM623.44,216.33c.45,0,1.01-.03,1.68-.1.67-.07,1.39-.24,2.14-.5.76-.27,1.5-.65,2.25-1.16s1.41-1.19,2-2.06,1.07-1.95,1.45-3.25c.38-1.3.57-2.88.57-4.73s-.18-3.39-.53-4.81c-.35-1.41-.92-2.62-1.72-3.61-.8-.99-1.83-1.75-3.09-2.27-1.26-.52-2.81-.78-4.66-.78h-6.72v23.27h6.64Z"/>
    <path class="st3" d="M664.35,189.7c4.62,0,8.17,1.18,10.67,3.53,2.49,2.35,3.74,5.94,3.74,10.75,0,2.52-.28,4.75-.84,6.7-.56,1.95-1.43,3.58-2.6,4.91-1.18,1.33-2.67,2.34-4.49,3.04-1.82.7-3.98,1.05-6.47,1.05h-10.29v-29.99h10.29ZM664.69,216.33c.45,0,1.01-.03,1.68-.1.67-.07,1.39-.24,2.14-.5.76-.27,1.5-.65,2.25-1.16s1.41-1.19,2-2.06,1.07-1.95,1.45-3.25c.38-1.3.57-2.88.57-4.73s-.18-3.39-.53-4.81c-.35-1.41-.92-2.62-1.72-3.61-.8-.99-1.83-1.75-3.09-2.27-1.26-.52-2.81-.78-4.66-.78h-6.72v23.27h6.64Z"/>
    <path class="st3" d="M704.33,189.7v3.36h-16.72v9.53h15.58v3.36h-15.58v10.37h16.84v3.36h-20.83v-29.99h20.71Z"/>
    <path class="st3" d="M456.92,230.7v3.36h-16.72v9.53h15.58v3.36h-15.58v10.37h16.84v3.36h-20.83v-29.99h20.71Z"/>
    <path class="st3" d="M472.16,230.7c4.62,0,8.17,1.18,10.67,3.53,2.49,2.35,3.74,5.94,3.74,10.75,0,2.52-.28,4.75-.84,6.7-.56,1.95-1.43,3.58-2.6,4.91-1.18,1.33-2.67,2.34-4.49,3.04-1.82.7-3.98,1.05-6.47,1.05h-10.29v-29.99h10.29ZM472.5,257.33c.45,0,1.01-.03,1.68-.1.67-.07,1.39-.24,2.14-.5.76-.27,1.5-.65,2.25-1.16s1.41-1.19,2-2.06,1.07-1.95,1.45-3.25c.38-1.3.57-2.88.57-4.73s-.18-3.39-.53-4.81c-.35-1.41-.92-2.62-1.72-3.61-.8-.99-1.83-1.75-3.09-2.27-1.26-.52-2.81-.78-4.66-.78h-6.72v23.27h6.64Z"/>
    <path class="st3" d="M512.31,258.49c-2.04,1.92-4.96,2.88-8.74,2.88s-6.88-.92-9.05-2.75c-2.17-1.83-3.25-4.75-3.25-8.76v-19.15h3.99v19.15c0,2.69.71,4.72,2.14,6.11,1.43,1.39,3.49,2.08,6.17,2.08,2.55,0,4.49-.69,5.82-2.08,1.33-1.39,1.99-3.42,1.99-6.11v-19.15h3.99v19.15c0,3.84-1.02,6.71-3.07,8.63Z"/>
    <path class="st3" d="M539.88,234.95c-1.53-1.06-3.34-1.6-5.44-1.6-1.79,0-3.33.34-4.6,1.01-1.27.67-2.33,1.58-3.15,2.71-.83,1.13-1.44,2.43-1.83,3.88-.39,1.46-.59,2.97-.59,4.54,0,1.71.2,3.33.59,4.85.39,1.53,1,2.86,1.83,3.99.83,1.13,1.88,2.04,3.17,2.71s2.83,1.01,4.62,1.01c1.32,0,2.48-.22,3.51-.65,1.02-.43,1.9-1.04,2.65-1.81.74-.77,1.32-1.69,1.74-2.75.42-1.06.67-2.21.76-3.44h3.99c-.39,3.78-1.69,6.72-3.91,8.82-2.21,2.1-5.24,3.15-9.07,3.15-2.32,0-4.35-.4-6.09-1.2-1.74-.8-3.18-1.9-4.33-3.3-1.15-1.4-2.01-3.05-2.58-4.96-.57-1.9-.86-3.95-.86-6.13s.31-4.23.92-6.15c.62-1.92,1.52-3.59,2.71-5.02,1.19-1.43,2.67-2.55,4.45-3.38,1.78-.83,3.82-1.24,6.11-1.24,1.57,0,3.05.21,4.45.63,1.4.42,2.65,1.04,3.74,1.85,1.09.81,2,1.83,2.73,3.04.73,1.22,1.2,2.62,1.43,4.22h-3.99c-.45-2.13-1.44-3.72-2.96-4.79Z"/>
    <path class="st3" d="M564.64,230.7l11.72,29.99h-4.41l-3.28-9.03h-12.68l-3.36,9.03h-4.07l11.68-29.99h4.41ZM567.42,248.3l-5-13.99h-.08l-5.08,13.99h10.16Z"/>
    <path class="st3" d="M597.42,234.95c-1.53-1.06-3.34-1.6-5.44-1.6-1.79,0-3.33.34-4.6,1.01-1.27.67-2.33,1.58-3.15,2.71-.83,1.13-1.44,2.43-1.83,3.88-.39,1.46-.59,2.97-.59,4.54,0,1.71.2,3.33.59,4.85.39,1.53,1,2.86,1.83,3.99.83,1.13,1.88,2.04,3.17,2.71s2.83,1.01,4.62,1.01c1.32,0,2.48-.22,3.51-.65,1.02-.43,1.9-1.04,2.65-1.81.74-.77,1.32-1.69,1.74-2.75.42-1.06.67-2.21.76-3.44h3.99c-.39,3.78-1.69,6.72-3.91,8.82-2.21,2.1-5.24,3.15-9.07,3.15-2.32,0-4.35-.4-6.09-1.2-1.74-.8-3.18-1.9-4.33-3.3-1.15-1.4-2.01-3.05-2.58-4.96-.57-1.9-.86-3.95-.86-6.13s.31-4.23.92-6.15c.62-1.92,1.52-3.59,2.71-5.02,1.19-1.43,2.67-2.55,4.45-3.38,1.78-.83,3.82-1.24,6.11-1.24,1.57,0,3.05.21,4.45.63,1.4.42,2.65,1.04,3.74,1.85,1.09.81,2,1.83,2.73,3.04.73,1.22,1.2,2.62,1.43,4.22h-3.99c-.45-2.13-1.44-3.72-2.96-4.79Z"/>
    <path class="st3" d="M613.78,230.7v29.99h-3.99v-29.99h3.99Z"/>
    <path class="st3" d="M619.72,239.8c.6-1.89,1.5-3.56,2.71-5.02,1.2-1.46,2.7-2.62,4.49-3.49,1.79-.87,3.88-1.3,6.26-1.3s4.47.43,6.26,1.3c1.79.87,3.29,2.03,4.49,3.49,1.2,1.46,2.11,3.13,2.71,5.02.6,1.89.9,3.86.9,5.9s-.3,4.01-.9,5.9c-.6,1.89-1.5,3.56-2.71,5.02-1.2,1.46-2.7,2.61-4.49,3.46-1.79.85-3.88,1.28-6.26,1.28s-4.47-.43-6.26-1.28c-1.79-.85-3.29-2.01-4.49-3.46-1.2-1.46-2.11-3.13-2.71-5.02-.6-1.89-.9-3.86-.9-5.9s.3-4.01.9-5.9ZM623.4,250.17c.39,1.47,1.01,2.79,1.85,3.97.84,1.18,1.92,2.12,3.23,2.83s2.88,1.07,4.7,1.07,3.39-.36,4.7-1.07c1.32-.71,2.39-1.66,3.23-2.83.84-1.18,1.46-2.5,1.85-3.97.39-1.47.59-2.96.59-4.47s-.2-3-.59-4.47c-.39-1.47-1.01-2.79-1.85-3.97-.84-1.18-1.92-2.12-3.23-2.84-1.32-.71-2.88-1.07-4.7-1.07s-3.39.36-4.7,1.07c-1.32.71-2.39,1.66-3.23,2.84-.84,1.18-1.46,2.5-1.85,3.97-.39,1.47-.59,2.96-.59,4.47s.2,3,.59,4.47ZM634.61,221.34l-4.03,6.8h2.69l5.92-6.8h-4.58Z"/>
    <path class="st3" d="M656.62,230.7l15.79,24.32h.08v-24.32h3.78v29.99h-4.37l-15.67-24.07h-.08v24.07h-3.78v-29.99h4.24Z"/>
    <path class="st3" d="M687.62,256.03v4.24c0,1.6-.36,2.97-1.09,4.12-.73,1.15-1.9,1.96-3.53,2.44v-2.1c.48-.17.87-.41,1.2-.74.32-.32.58-.67.78-1.05.2-.38.33-.76.4-1.16.07-.39.09-.76.06-1.09h-2.48v-4.66h4.66Z"/>
    <path class="st3" d="M725.79,230.7v3.36h-15.71v9.53h13.78v3.36h-13.78v13.73h-3.99v-29.99h19.7Z"/>
    <path class="st3" d="M734.36,230.7v29.99h-3.99v-29.99h3.99Z"/>
    <path class="st3" d="M745.07,230.7v26.63h15.88v3.36h-19.87v-29.99h3.99Z"/>
    <path class="st3" d="M763.66,239.8c.6-1.89,1.5-3.56,2.71-5.02,1.2-1.46,2.7-2.62,4.49-3.49,1.79-.87,3.88-1.3,6.26-1.3s4.47.43,6.26,1.3c1.79.87,3.29,2.03,4.49,3.49,1.2,1.46,2.11,3.13,2.71,5.02.6,1.89.9,3.86.9,5.9s-.3,4.01-.9,5.9c-.6,1.89-1.5,3.56-2.71,5.02-1.2,1.46-2.7,2.61-4.49,3.46-1.79.85-3.88,1.28-6.26,1.28s-4.47-.43-6.26-1.28c-1.79-.85-3.29-2.01-4.49-3.46-1.2-1.46-2.11-3.13-2.71-5.02-.6-1.89-.9-3.86-.9-5.9s.3-4.01.9-5.9ZM767.33,250.17c.39,1.47,1.01,2.79,1.85,3.97.84,1.18,1.92,2.12,3.23,2.83s2.88,1.07,4.7,1.07,3.39-.36,4.7-1.07c1.32-.71,2.39-1.66,3.23-2.83.84-1.18,1.46-2.5,1.85-3.97.39-1.47.59-2.96.59-4.47s-.2-3-.59-4.47c-.39-1.47-1.01-2.79-1.85-3.97-.84-1.18-1.92-2.12-3.23-2.84-1.32-.71-2.88-1.07-4.7-1.07s-3.39.36-4.7,1.07c-1.32.71-2.39,1.66-3.23,2.84-.84,1.18-1.46,2.5-1.85,3.97-.39,1.47-.59,2.96-.59,4.47s.2,3,.59,4.47Z"/>
    <path class="st3" d="M811.37,234.8c-1.33-.97-3.03-1.45-5.1-1.45-.84,0-1.67.08-2.48.25-.81.17-1.53.45-2.16.84-.63.39-1.13.92-1.51,1.58s-.57,1.48-.57,2.46c0,.92.27,1.67.82,2.25s1.27,1.04,2.18,1.41c.91.36,1.94.67,3.09.9,1.15.24,2.32.5,3.51.78,1.19.28,2.36.61,3.51.99,1.15.38,2.18.89,3.09,1.53.91.64,1.64,1.46,2.18,2.44s.82,2.21.82,3.7c0,1.6-.36,2.96-1.07,4.1-.71,1.13-1.63,2.06-2.75,2.77s-2.37,1.23-3.76,1.55c-1.39.32-2.77.48-4.14.48-1.68,0-3.27-.21-4.77-.63s-2.81-1.06-3.95-1.91c-1.13-.85-2.03-1.95-2.69-3.28-.66-1.33-.99-2.91-.99-4.73h3.78c0,1.26.25,2.35.74,3.25.49.91,1.13,1.66,1.93,2.25s1.73,1.02,2.79,1.3c1.06.28,2.16.42,3.28.42.9,0,1.8-.08,2.71-.25.91-.17,1.73-.45,2.46-.86.73-.41,1.32-.96,1.76-1.66.45-.7.67-1.6.67-2.69,0-1.04-.27-1.88-.82-2.52-.55-.64-1.27-1.17-2.18-1.58-.91-.41-1.94-.73-3.09-.99-1.15-.25-2.32-.51-3.51-.78-1.19-.27-2.36-.57-3.51-.92-1.15-.35-2.18-.81-3.09-1.39-.91-.57-1.64-1.32-2.18-2.23-.55-.91-.82-2.05-.82-3.42,0-1.51.31-2.82.92-3.93.62-1.11,1.43-2.02,2.46-2.73,1.02-.71,2.18-1.25,3.49-1.6,1.3-.35,2.64-.53,4.01-.53,1.54,0,2.97.18,4.28.55,1.32.36,2.47.94,3.47,1.72.99.78,1.78,1.77,2.35,2.96.57,1.19.89,2.61.95,4.26h-3.78c-.22-2.16-1-3.72-2.33-4.68Z"/>
    <path class="st3" d="M822.79,239.8c.6-1.89,1.5-3.56,2.71-5.02,1.2-1.46,2.7-2.62,4.49-3.49,1.79-.87,3.88-1.3,6.26-1.3s4.47.43,6.26,1.3c1.79.87,3.29,2.03,4.49,3.49,1.2,1.46,2.11,3.13,2.71,5.02.6,1.89.9,3.86.9,5.9s-.3,4.01-.9,5.9c-.6,1.89-1.5,3.56-2.71,5.02-1.2,1.46-2.7,2.61-4.49,3.46-1.79.85-3.88,1.28-6.26,1.28s-4.47-.43-6.26-1.28c-1.79-.85-3.29-2.01-4.49-3.46-1.2-1.46-2.11-3.13-2.71-5.02-.6-1.89-.9-3.86-.9-5.9s.3-4.01.9-5.9ZM826.47,250.17c.39,1.47,1.01,2.79,1.85,3.97.84,1.18,1.92,2.12,3.23,2.83s2.88,1.07,4.7,1.07,3.39-.36,4.7-1.07c1.32-.71,2.39-1.66,3.23-2.83.84-1.18,1.46-2.5,1.85-3.97.39-1.47.59-2.96.59-4.47s-.2-3-.59-4.47c-.39-1.47-1.01-2.79-1.85-3.97-.84-1.18-1.92-2.12-3.23-2.84-1.32-.71-2.88-1.07-4.7-1.07s-3.39.36-4.7,1.07c-1.32.71-2.39,1.66-3.23,2.84-.84,1.18-1.46,2.5-1.85,3.97-.39,1.47-.59,2.96-.59,4.47s.2,3,.59,4.47Z"/>
    <path class="st3" d="M875.19,230.7v3.36h-15.71v9.53h13.78v3.36h-13.78v13.73h-3.99v-29.99h19.7Z"/>
    <path class="st3" d="M887.87,220.92l-5.92,6.8h-2.69l4.03-6.8h4.58ZM879.76,230.7v29.99h3.99v-29.99h-3.99Z"/>
    <path class="st3" d="M903.03,230.7l11.72,29.99h-4.41l-3.28-9.03h-12.68l-3.36,9.03h-4.07l11.68-29.99h4.41ZM905.8,248.3l-5-13.99h-.08l-5.08,13.99h10.16Z"/>
    <path class="st3" d="M448.6,301.69h-3.99v-12.26l-11.59-17.72h4.75l8.99,14.28,8.78-14.28h4.54l-11.47,17.72v12.26Z"/>
    <path class="st3" d="M487.66,271.7l11.72,29.99h-4.41l-3.28-9.03h-12.68l-3.36,9.03h-4.07l11.68-29.99h4.41ZM490.43,289.3l-5-13.99h-.08l-5.08,13.99h10.16Z"/>
    <path class="st3" d="M506.52,271.7l15.79,24.32h.08v-24.32h3.78v29.99h-4.37l-15.67-24.07h-.08v24.07h-3.78v-29.99h4.24Z"/>
    <path class="st3" d="M529.45,275.06v-3.36h23.98v3.36h-10v26.63h-3.99v-26.63h-10Z"/>
    <path class="st3" d="M570.86,271.7c2.86,0,5.09.7,6.7,2.1s2.42,3.32,2.42,5.75c0,1.82-.41,3.42-1.24,4.79s-2.15,2.31-3.97,2.81v.08c.87.17,1.58.45,2.12.84.55.39.98.86,1.3,1.41.32.55.56,1.16.71,1.83s.27,1.37.36,2.1c.06.73.1,1.47.13,2.23.03.76.1,1.5.21,2.23.11.73.27,1.42.48,2.08.21.66.52,1.24.94,1.74h-4.45c-.28-.31-.47-.73-.57-1.26-.1-.53-.16-1.13-.19-1.79-.03-.66-.06-1.37-.08-2.12-.03-.76-.11-1.5-.25-2.23-.11-.73-.25-1.42-.42-2.08s-.43-1.23-.8-1.72c-.36-.49-.84-.88-1.43-1.18s-1.37-.44-2.35-.44h-9.74v12.81h-3.99v-29.99h14.11ZM571.7,285.31c.84-.14,1.58-.41,2.21-.82.63-.41,1.13-.95,1.51-1.64.38-.69.57-1.58.57-2.67,0-1.51-.42-2.74-1.26-3.7-.84-.95-2.2-1.43-4.07-1.43h-9.91v10.46h8.32c.92,0,1.81-.07,2.65-.21Z"/>
    <path class="st3" d="M584.74,280.8c.6-1.89,1.5-3.56,2.71-5.02,1.2-1.46,2.7-2.62,4.49-3.49,1.79-.87,3.88-1.3,6.26-1.3s4.47.43,6.26,1.3c1.79.87,3.29,2.03,4.49,3.49,1.2,1.46,2.11,3.13,2.71,5.02.6,1.89.9,3.86.9,5.9s-.3,4.01-.9,5.9c-.6,1.89-1.5,3.56-2.71,5.02-1.2,1.46-2.7,2.61-4.49,3.46-1.79.85-3.88,1.28-6.26,1.28s-4.47-.43-6.26-1.28c-1.79-.85-3.29-2.01-4.49-3.46-1.2-1.46-2.11-3.13-2.71-5.02-.6-1.89-.9-3.86-.9-5.9s.3-4.01.9-5.9ZM588.41,291.17c.39,1.47,1.01,2.79,1.85,3.97.84,1.18,1.92,2.12,3.23,2.83,1.32.71,2.88,1.07,4.7,1.07s3.39-.36,4.7-1.07c1.32-.71,2.39-1.66,3.23-2.83.84-1.18,1.46-2.5,1.85-3.97.39-1.47.59-2.96.59-4.47s-.2-3-.59-4.47c-.39-1.47-1.01-2.79-1.85-3.97-.84-1.18-1.92-2.12-3.23-2.84-1.32-.71-2.88-1.07-4.7-1.07s-3.39.36-4.7,1.07c-1.32.71-2.39,1.66-3.23,2.84-.84,1.18-1.46,2.5-1.85,3.97-.39,1.47-.59,2.96-.59,4.47s.2,3,.59,4.47Z"/>
    <path class="st3" d="M630.58,271.7c3.02,0,5.31.78,6.87,2.33,1.55,1.55,2.33,3.73,2.33,6.53s-.78,4.98-2.33,6.55c-1.55,1.57-3.84,2.34-6.87,2.31h-9.16v12.26h-3.99v-29.99h13.15ZM629.24,286.07c2.27.03,3.93-.43,4.98-1.39,1.05-.95,1.58-2.32,1.58-4.12s-.52-3.16-1.58-4.09c-1.05-.94-2.71-1.41-4.98-1.41h-7.81v11h7.81Z"/>
    <path class="st3" d="M643.88,280.8c.6-1.89,1.5-3.56,2.71-5.02,1.2-1.46,2.7-2.62,4.49-3.49,1.79-.87,3.88-1.3,6.26-1.3s4.47.43,6.26,1.3c1.79.87,3.29,2.03,4.49,3.49,1.2,1.46,2.11,3.13,2.71,5.02.6,1.89.9,3.86.9,5.9s-.3,4.01-.9,5.9c-.6,1.89-1.5,3.56-2.71,5.02-1.2,1.46-2.7,2.61-4.49,3.46-1.79.85-3.88,1.28-6.26,1.28s-4.47-.43-6.26-1.28c-1.79-.85-3.29-2.01-4.49-3.46-1.2-1.46-2.11-3.13-2.71-5.02-.6-1.89-.9-3.86-.9-5.9s.3-4.01.9-5.9ZM647.55,291.17c.39,1.47,1.01,2.79,1.85,3.97.84,1.18,1.92,2.12,3.23,2.83s2.88,1.07,4.7,1.07,3.39-.36,4.7-1.07c1.32-.71,2.39-1.66,3.23-2.83.84-1.18,1.46-2.5,1.85-3.97.39-1.47.59-2.96.59-4.47s-.2-3-.59-4.47c-.39-1.47-1.01-2.79-1.85-3.97-.84-1.18-1.92-2.12-3.23-2.84-1.32-.71-2.88-1.07-4.7-1.07s-3.39.36-4.7,1.07c-1.32.71-2.39,1.66-3.23,2.84-.84,1.18-1.46,2.5-1.85,3.97-.39,1.47-.59,2.96-.59,4.47s.2,3,.59,4.47Z"/>
    <path class="st3" d="M680.56,271.7v26.63h15.88v3.36h-19.87v-29.99h3.99Z"/>
    <path class="st3" d="M699.15,280.8c.6-1.89,1.5-3.56,2.71-5.02,1.2-1.46,2.7-2.62,4.49-3.49,1.79-.87,3.88-1.3,6.26-1.3s4.47.43,6.26,1.3c1.79.87,3.29,2.03,4.49,3.49,1.2,1.46,2.11,3.13,2.71,5.02.6,1.89.9,3.86.9,5.9s-.3,4.01-.9,5.9c-.6,1.89-1.5,3.56-2.71,5.02-1.2,1.46-2.7,2.61-4.49,3.46-1.79.85-3.88,1.28-6.26,1.28s-4.47-.43-6.26-1.28c-1.79-.85-3.29-2.01-4.49-3.46-1.2-1.46-2.11-3.13-2.71-5.02-.6-1.89-.9-3.86-.9-5.9s.3-4.01.9-5.9ZM702.82,291.17c.39,1.47,1.01,2.79,1.85,3.97.84,1.18,1.92,2.12,3.23,2.83s2.88,1.07,4.7,1.07,3.39-.36,4.7-1.07c1.32-.71,2.39-1.66,3.23-2.83.84-1.18,1.46-2.5,1.85-3.97.39-1.47.59-2.96.59-4.47s-.2-3-.59-4.47c-.39-1.47-1.01-2.79-1.85-3.97-.84-1.18-1.92-2.12-3.23-2.84-1.32-.71-2.88-1.07-4.7-1.07s-3.39.36-4.7,1.07c-1.32.71-2.39,1.66-3.23,2.84-.84,1.18-1.46,2.5-1.85,3.97-.39,1.47-.59,2.96-.59,4.47s.2,3,.59,4.47Z"/>
    <path class="st3" d="M749.9,301.33c-1.74.69-3.49,1.03-5.25,1.03-2.24,0-4.24-.41-6.01-1.24-1.76-.83-3.26-1.94-4.49-3.34-1.23-1.4-2.17-3.01-2.81-4.83-.64-1.82-.97-3.71-.97-5.67,0-2.18.3-4.26.9-6.24.6-1.97,1.5-3.7,2.69-5.19,1.19-1.48,2.67-2.67,4.45-3.55s3.86-1.32,6.24-1.32c1.62,0,3.16.19,4.6.57s2.73.97,3.86,1.79,2.09,1.84,2.86,3.09c.77,1.25,1.29,2.75,1.58,4.51h-3.99c-.2-1.15-.56-2.13-1.09-2.96-.53-.83-1.19-1.5-1.97-2.04-.78-.53-1.67-.93-2.67-1.2-.99-.27-2.05-.4-3.17-.4-1.82,0-3.38.36-4.68,1.09-1.3.73-2.37,1.69-3.19,2.88-.83,1.19-1.44,2.55-1.83,4.07-.39,1.53-.59,3.09-.59,4.68s.22,3.07.67,4.52,1.11,2.72,1.97,3.82c.87,1.11,1.94,1.99,3.21,2.65,1.27.66,2.75.99,4.43.99,1.57,0,2.95-.25,4.16-.76,1.2-.5,2.22-1.2,3.04-2.08.83-.88,1.45-1.92,1.87-3.11.42-1.19.6-2.47.55-3.84h-9.58v-3.36h13.15v15.79h-2.52l-1.05-3.74c-1.18,1.57-2.63,2.7-4.37,3.38Z"/>
    <path class="st3" d="M772,261.92l-5.92,6.8h-2.69l4.03-6.8h4.58ZM763.89,271.7v29.99h3.99v-29.99h-3.99Z"/>
    <path class="st3" d="M787.16,271.7l11.72,29.99h-4.41l-3.28-9.03h-12.68l-3.36,9.03h-4.07l11.68-29.99h4.41ZM789.93,289.3l-5-13.99h-.08l-5.08,13.99h10.16Z"/>
  </g>
</svg>